<?xml version="1.0" encoding="utf-8"?>
<svg version="1.1" xmlns:xlink="http://www.w3.org/1999/xlink" width="75px" height="60px" xmlns="http://www.w3.org/2000/svg">
  <g transform="matrix(1 0 0 1 -200 -417 )">
    <path d="M 7.09239130434781 21.5450800915332  L 0.945652173913032 13.8573913043479  C 11.3774717082252 5.31729588025649  24.4005826579814 0.666428972766255  37.8260869565217 0.686498855835282  C 51.7989130434783 0.686498855835282  64.6304347826087 5.61940503432498  74.7065217391304 13.8573913043479  L 68.5597826086957 21.5450800915332  C 59.8662988046874 14.4292018186729  49.0136989932049 10.5544464282111  37.8260869565217 10.5720823798627  C 26.1847826086957 10.5720823798627  15.4891304347826 14.6844851258581  7.09239130434781 21.5450800915332  Z M 11.1880434782609 26.6724027459954  L 11.1880434782609 26.6756979405034  C 18.7226143940024 20.5070861249964  28.1290408725562 17.1477753655989  37.8260869565217 17.162471395881  C 47.9152173913044 17.162471395881  57.1826086956522 20.7245766590389  64.4641304347826 26.6724027459954  L 58.3173913043478 34.3633867276888  C 52.5211561012237 29.6189920362315  45.2852407513072 27.0357928011244  37.8260869565217 27.0480549199085  C 30.0652173913044 27.0480549199085  22.9369565217391 29.7896567505721  17.3347826086957 34.3633867276888  L 11.1880434782609 26.6724027459954  Z M 21.4336956521739 39.490709382151  L 21.4336956521739 39.4940045766591  C 26.0701489645081 35.6975900882916  31.8586177747018 33.6298789468375  37.8260869565217 33.6384439359268  C 44.0347826086957 33.6384439359268  49.7380434782609 35.8297482837528  54.2184782608696 39.490709382151  L 48.0717391304348 47.1816933638444  C 45.1734897472473 44.8097339894319  41.5556184646236 43.5181652136727  37.8260869565217 43.5240274599542  C 34.0965554484198 43.5181652136727  30.4786841657962 44.8097339894319  27.5804347826087 47.1816933638444  L 21.4336956521739 39.490709382151  Z M 31.679347826087 52.3090160183066  L 31.679347826087 52.3123112128147  C 33.4175515817392 50.887856015352  35.5881491615843 50.1117135932795  37.8260869565217 50.1144164759726  C 40.154347826087 50.1144164759726  42.2934782608696 50.9382151029749  43.9728260869565 52.3090160183066  L 37.8260869565217 60  L 31.679347826087 52.3090160183066  Z " fill-rule="nonzero" fill="#f2f2f2" stroke="none" transform="matrix(1 0 0 1 200 417 )" />
  </g>
</svg>