<?xml version="1.0" encoding="utf-8"?>
<svg version="1.1" xmlns:xlink="http://www.w3.org/1999/xlink" width="18px" height="18px" xmlns="http://www.w3.org/2000/svg">
  <g transform="matrix(1 0 0 1 -230 -467 )">
    <path d="M 13.2421875 12.1874999999999  C 13.3906249999999 12.0390625  13.46484375 11.8593750000001  13.46484375 11.6484375000001  C 13.46484375 11.4453125  13.3906249999999 11.26953125  13.2421875 11.1210937500001  L 11.12109375 9  L 13.2421875 6.87890624999994  C 13.3906249999999 6.73046875  13.46484375 6.5546875  13.46484375 6.35156249999994  C 13.46484375 6.14062499999994  13.3906249999999 5.9609375  13.2421875 5.81250000000006  L 12.1875 4.75781250000006  C 12.0390625 4.60937499999994  11.859375 4.53515625  11.6484375 4.53515625  C 11.4453125 4.53515625  11.26953125 4.60937499999994  11.12109375 4.75781250000006  L 9 6.87890624999994  L 6.87890624999997 4.75781250000006  C 6.73046874999997 4.60937499999994  6.55468749999997 4.53515625  6.35156249999997 4.53515625  C 6.14062499999997 4.53515625  5.96093750000003 4.60937499999994  5.81250000000003 4.75781250000006  L 4.75781250000003 5.81250000000006  C 4.60937500000006 5.9609375  4.53515625 6.14062499999994  4.53515625 6.35156249999994  C 4.53515625 6.5546875  4.60937500000006 6.73046875  4.75781250000003 6.87890624999994  L 6.87890624999997 9  L 4.75781250000003 11.1210937500001  C 4.60937500000006 11.26953125  4.53515625 11.4453125  4.53515625 11.6484375000001  C 4.53515625 11.8593750000001  4.60937500000006 12.0390625  4.75781250000003 12.1874999999999  L 5.81250000000003 13.2421874999999  C 5.96093750000003 13.3906250000001  6.14062499999997 13.46484375  6.35156249999997 13.46484375  C 6.55468749999997 13.46484375  6.73046874999997 13.3906250000001  6.87890624999997 13.2421874999999  L 9 11.1210937500001  L 11.12109375 13.2421874999999  C 11.26953125 13.3906250000001  11.4453125 13.46484375  11.6484375 13.46484375  C 11.859375 13.46484375  12.0390625 13.3906250000001  12.1875 13.2421874999999  L 13.2421875 12.1874999999999  Z M 16.79296875 4.482421875  C 17.59765625 5.861328125  18 7.3671875  18 9  C 18 10.6328125  17.59765625 12.138671875  16.79296875 13.517578125  C 15.98828125 14.896484375  14.896484375 15.98828125  13.517578125 16.7929687499999  C 12.138671875 17.59765625  10.6328125 18  9 18  C 7.36718750000003 18  5.861328125 17.59765625  4.482421875 16.7929687499999  C 3.103515625 15.98828125  2.01171875 14.896484375  1.20703124999997 13.517578125  C 0.402343750000028 12.138671875  0 10.6328125  0 9  C 0 7.3671875  0.402343750000028 5.861328125  1.20703124999997 4.482421875  C 2.01171875 3.103515625  3.103515625 2.01171875  4.482421875 1.20703125000006  C 5.861328125 0.40234375  7.36718750000003 0  9 0  C 10.6328125 0  12.138671875 0.40234375  13.517578125 1.20703125000006  C 14.896484375 2.01171875  15.98828125 3.103515625  16.79296875 4.482421875  Z " fill-rule="nonzero" fill="#f2f2f2" stroke="none" transform="matrix(1 0 0 1 230 467 )" />
  </g>
</svg>