<?xml version="1.0" encoding="utf-8"?>
<svg version="1.1" xmlns:xlink="http://www.w3.org/1999/xlink" width="16px" height="18px" xmlns="http://www.w3.org/2000/svg">
  <g transform="matrix(1 0 0 1 -49 -595 )">
    <path d="M 16 3.53103448275863  C 16 2.55558620689652  15.2044444444444 1.76551724137931  14.2222222222222 1.76551724137931  L 13.3333333333334 1.76551724137931  L 13.3333333333334 0  L 11.5555555555555 0  L 11.5555555555555 1.76551724137931  L 4.44444444444446 1.76551724137931  L 4.44444444444446 0  L 2.66666666666663 0  L 2.66666666666663 1.76551724137931  L 1.77777777777783 1.76551724137931  C 0.795555555555552 1.76551724137931  0 2.55558620689652  0 3.53103448275863  L 0 15.8896551724138  C 0 16.8651034482758  0.795555555555552 17.6551724137931  1.77777777777783 17.6551724137931  L 14.2222222222222 17.6551724137931  C 15.2044444444444 17.6551724137931  16 16.8651034482758  16 15.8896551724138  L 16 3.53103448275863  Z M 5.33333333333337 7.06206896551726  C 5.33333333333337 5.60110344827586  6.5288888888889 4.41379310344826  8 4.41379310344826  C 9.4711111111111 4.41379310344826  10.6666666666666 5.60110344827586  10.6666666666666 7.06206896551726  C 10.6666666666666 8.52744827586207  9.4711111111111 9.7103448275862  8 9.7103448275862  C 6.5288888888889 9.7103448275862  5.33333333333337 8.52744827586207  5.33333333333337 7.06206896551726  Z M 13.3333333333334 14.1241379310345  L 13.3333333333334 15  L 2.66666666666663 15  L 2.66666666666663 14.1241379310345  C 2.66666666666663 12.3586206896551  6.22222222222217 11.3875862068965  8 11.3875862068965  C 9.77777777777783 11.3875862068965  13.3333333333334 12.3586206896551  13.3333333333334 14.1241379310345  Z " fill-rule="nonzero" fill="#cc66ff" stroke="none" transform="matrix(1 0 0 1 49 595 )" />
  </g>
</svg>