<?xml version="1.0" encoding="utf-8"?>
<svg version="1.1" xmlns:xlink="http://www.w3.org/1999/xlink" width="6px" height="10px" xmlns="http://www.w3.org/2000/svg">
  <g transform="matrix(1 0 0 1 -374 -446 )">
    <path d="M 5.70034364261176 4.7695390781563  C 5.766781214204 4.83633934535743  5.80000000000007 4.91315965263868  5.80000000000007 5  C 5.80000000000007 5.08684034736132  5.766781214204 5.16366065464257  5.70034364261176 5.2304609218437  L 1.0563573883162 9.89979959919833  C 0.989919816723955 9.96659986639952  0.913516609393014 10  0.82714776632298 10  C 0.740778923253174 10  0.66437571592212 9.96659986639952  0.597938144329987 9.89979959919833  L 0.0996563573884259 9.39879759519033  C 0.0332187857960662 9.33199732798937  0 9.25517702070812  0 9.16833667334674  C 0 9.08149632598526  0.0332187857960662 9.004676018704  0.0996563573884259 8.93787575150304  L 4.01615120274914 5  L 0.0996563573884259 1.06212424849696  C 0.0332187857960662 0.995323981295996  0 0.918503674014744  0 0.831663326653256  C 0 0.744822979291882  0.0332187857960662 0.66800267201063  0.0996563573884259 0.601202404809669  L 0.597938144329987 0.100200400801668  C 0.66437571592212 0.0334001336004803  0.740778923253174 0  0.82714776632298 0  C 0.913516609393014 0  0.989919816723955 0.0334001336004803  1.0563573883162 0.100200400801668  L 5.70034364261176 4.7695390781563  Z " fill-rule="nonzero" fill="#999999" stroke="none" transform="matrix(1 0 0 1 374 446 )" />
  </g>
</svg>