<?xml version="1.0" encoding="utf-8"?>
<svg version="1.1" xmlns:xlink="http://www.w3.org/1999/xlink" width="50px" height="49px" xmlns="http://www.w3.org/2000/svg">
  <defs>
    <filter x="338px" y="205px" width="50px" height="49px" filterUnits="userSpaceOnUse" id="filter2447">
      <feOffset dx="0" dy="2" in="SourceAlpha" result="shadowOffsetInner" />
      <feGaussianBlur stdDeviation="7.5" in="shadowOffsetInner" result="shadowGaussian" />
      <feComposite in2="shadowGaussian" operator="atop" in="SourceAlpha" result="shadowComposite" />
      <feColorMatrix type="matrix" values="0 0 0 0 1  0 0 0 0 0.4  0 0 0 0 0  0 0 0 0.8 0  " in="shadowComposite" />
    </filter>
    <g id="widget2448">
      <path d="M 0 19  L 0 17  L 20 17  L 20 19  L 0 19  Z M 0 15  L 0 3  L 5 6.5  L 10 0  L 15 6.5  L 20 3  L 20 15  L 0 15  Z M 2 6.84  L 2 6.841  L 2 13  L 18 13  L 18 6.841  L 14.58 9.235  L 10 3.28  L 5.42 9.235  L 2 6.84  Z " fill-rule="nonzero" fill="#ff6600" stroke="none" fill-opacity="0.83921568627451" transform="matrix(1 0 0 1 353 218 )" />
    </g>
  </defs>
  <g transform="matrix(1 0 0 1 -338 -205 )">
    <use xlink:href="#widget2448" filter="url(#filter2447)" />
    <use xlink:href="#widget2448" />
  </g>
</svg>