<?xml version="1.0" encoding="utf-8"?>
<svg version="1.1" xmlns:xlink="http://www.w3.org/1999/xlink" width="16px" height="16px" xmlns="http://www.w3.org/2000/svg">
  <g transform="matrix(1 0 0 1 -49 -646 )">
    <path d="M 0.842105263157919 1  L 11.5848421052632 1  L 5.29768421052631 7.12926315789468  L 5.3044210526316 10.7056842105263  L 8.87326315789471 10.6997894736842  L 15 4.41515789473681  L 15 15.1578947368421  C 15.1578947368421 15.6229766314365  14.7808713682786 16  14.3157894736842 16  L 0.842105263157919 16  C 0.377023368563528 16  0 15.6229766314365  0 15.1578947368421  L 0 1.68421052631584  C 0 1.21912863172145  0.377023368563528 0.842105263157919  0.842105263157919 1  Z M 6.98442105263155 7.82652631578947  L 14.7242105263158 0.0842105263158146  L 15.9157894736842 1.27663157894733  L 8.1751578947368 9.01726315789472  L 6.98610526315792 9.01978947368423  L 6.98442105263155 7.82652631578947  Z " fill-rule="nonzero" fill="#0099ff" stroke="none" transform="matrix(1 0 0 1 49 646 )" />
  </g>
</svg>