<?xml version="1.0" encoding="utf-8"?>
<svg version="1.1" xmlns:xlink="http://www.w3.org/1999/xlink" width="16px" height="15px" xmlns="http://www.w3.org/2000/svg">
  <g transform="matrix(1 0 0 1 -49 -547 )">
    <path d="M 0 0.799999999999955  C 0 0.358172200135414  0.358172200135357 0  0.800000000000011 0  L 15.2 0  C 15.6418277998646 0  16 0.358172200135414  16 0.799999999999955  L 16 13.6  C 16 14.0418277998646  15.6418277998646 14.4  15.2 14.4  L 0.800000000000011 14.4  C 0.358172200135357 14.4  0 14.0418277998646  0 13.6  L 0 0.799999999999955  Z M 6.44 6.39999999999998  C 6.62973888703829 5.46841721994133  7.44905575529003 4.79915245688562  8.39976460733482 4.79915245688562  C 8.87260382687458 4.79915245688562  9.33015121208399 4.9666793484231  9.69119999999998 5.27199999999993  L 11.052 4.36559999999997  C 10.3702027105026 3.62294900920108  9.40824057992148 3.20021411177447  8.40008481908853 3.20021411177447  C 6.56673025787251 3.20021411177447  5.02621510202351 4.57800978286969  4.82240000000002 6.39999999999998  L 4 6.39999999999998  L 4 8  L 4.82159999999999 8  C 5.02505251783356 9.82233125129005  6.56571844090666 11.2005629320629  8.39937165687775 11.2005629320629  C 9.40789449979491 11.2005629320629  10.3701721447352 10.77752118828  11.052 10.0344  L 9.69119999999998 9.12720000000002  C 9.33013120154982 9.43259398740179  8.87252736063277 9.60016518549844  8.399625505323 9.60016518549844  C 7.44917828031106 9.60016518549844  6.63001094495309 8.9312603117985  6.44 8  L 10.4 8.00080000000003  L 10.4 6.4008  L 6.44 6.4008  Z " fill-rule="nonzero" fill="#00cccc" stroke="none" transform="matrix(1 0 0 1 49 547 )" />
  </g>
</svg>