<?xml version="1.0" encoding="utf-8"?>
<svg version="1.1" xmlns:xlink="http://www.w3.org/1999/xlink" width="16px" height="15px" xmlns="http://www.w3.org/2000/svg">
  <g transform="matrix(1 0 0 1 -49 -495 )">
    <path d="M 0 9.60480222430317  L 0 4.79520445528595  C 0 4.79413556273374  0 4.79306666997275  0 4.79199777718117  C 0 2.14545048362095  2.14545133494323 0  4.79199967866271 0  C 4.7946667041823 0  4.79733372923681 0  4.80000075103885 0  L 11.2000003218737 0  C 13.8504001441459 0  16 2.15600567950622  16 4.79520445528595  L 16 14.4  L 4.80000075103885 14.4  C 2.14960092876686 14.4  0 12.2440010000829  0 9.60480222430317  Z M 11.2000003218737 6.40000371088286  L 9.60000042916499 6.40000371088286  L 9.60000042916499 8.00000296870627  L 11.2000003218737 8.00000296870627  L 11.2000003218737 6.40000371088286  Z M 6.4000006437476 6.40000371088286  L 4.80000075103885 6.40000371088286  L 4.80000075103885 8.00000296870627  L 6.4000006437476 8.00000296870627  L 6.4000006437476 6.40000371088286  Z " fill-rule="nonzero" fill="#efb336" stroke="none" transform="matrix(1 0 0 1 49 495 )" />
  </g>
</svg>