<?xml version="1.0" encoding="utf-8"?>
<svg version="1.1" xmlns:xlink="http://www.w3.org/1999/xlink" width="16px" height="16px" xmlns="http://www.w3.org/2000/svg">
  <g>
    <path d="M 13.1875 6.78125  C 13.3125 6.65625  13.375 6.5  13.375 6.3125  C 13.375 6.11805555555554  13.3125 5.95833333333337  13.1875 5.83333333333337  L 12.2395833333334 4.89583333333337  C 12.1076388888889 4.76388888888891  11.9513888888889 4.69791666666663  11.7708333333334 4.69791666666663  C 11.5902777777778 4.69791666666663  11.4340277777778 4.76388888888891  11.3020833333334 4.89583333333337  L 7.05208333333337 9.13541666666663  L 4.69791666666663 6.78125  C 4.56597222222217 6.64930555555554  4.40972222222217 6.58333333333337  4.22916666666663 6.58333333333337  C 4.04861111111109 6.58333333333337  3.89236111111109 6.64930555555554  3.76041666666663 6.78125  L 2.8125 7.71875  C 2.6875 7.84375  2.625 8.00347222222217  2.625 8.19791666666663  C 2.625 8.38541666666663  2.6875 8.54166666666663  2.8125 8.66666666666663  L 6.58333333333337 12.4375  C 6.71527777777783 12.5694444444445  6.87152777777783 12.6354166666666  7.05208333333337 12.6354166666666  C 7.23958333333337 12.6354166666666  7.39930555555554 12.5694444444445  7.53125 12.4375  L 13.1875 6.78125  Z M 14.9270833333334 3.984375  C 15.6423611111111 5.21006944444446  16 6.54861111111109  16 8  C 16 9.45138888888891  15.6423611111111 10.7899305555555  14.9270833333334 12.015625  C 14.2118055555555 13.2413194444445  13.2413194444445 14.2118055555555  12.015625 14.9270833333334  C 10.7899305555555 15.6423611111111  9.45138888888891 16  8 16  C 6.54861111111109 16  5.21006944444446 15.6423611111111  3.984375 14.9270833333334  C 2.75868055555554 14.2118055555555  1.78819444444446 13.2413194444445  1.07291666666663 12.015625  C 0.357638888888914 10.7899305555555  0 9.45138888888891  0 8  C 0 6.54861111111109  0.357638888888914 5.21006944444446  1.07291666666663 3.984375  C 1.78819444444446 2.75868055555554  2.75868055555554 1.78819444444446  3.984375 1.07291666666663  C 5.21006944444446 0.357638888888914  6.54861111111109 0  8 0  C 9.45138888888891 0  10.7899305555555 0.357638888888914  12.015625 1.07291666666663  C 13.2413194444445 1.78819444444446  14.2118055555555 2.75868055555554  14.9270833333334 3.984375  Z " fill-rule="nonzero" fill="#ff6633" stroke="none" />
  </g>
</svg>