<?xml version="1.0" encoding="utf-8"?>
<svg version="1.1" xmlns:xlink="http://www.w3.org/1999/xlink" width="19px" height="20px" xmlns="http://www.w3.org/2000/svg">
  <g transform="matrix(1 0 0 1 -817 -908 )">
    <path d="M 4.76201923076917 14.6677276234568  C 5.0424679487179 14.9490419238682  5.18269230769226 15.2884945130314  5.18269230769226 15.6860853909462  C 5.18269230769226 16.0836762688614  5.0424679487179 16.4231288580246  4.76201923076917 16.704443158436  C 4.48157051282044 16.9857574588477  4.14316239316236 17.1264146090534  3.7467948717948 17.1264146090534  C 3.357905982906 17.1264146090534  3.02136752136755 16.9838820301781  2.73717948717956 16.698816872428  C 2.45299145299145 16.4137517146777  2.31089743589746 16.0761745541837  2.31089743589746 15.6860853909462  C 2.31089743589746 15.2884945130314  2.45112179487182 14.9490419238682  2.73157051282044 14.6677276234568  C 3.01201923076917 14.3864133230451  3.35042735042737 14.2457561728394  3.7467948717948 14.2457561728394  C 4.14316239316236 14.2457561728394  4.48157051282044 14.3864133230451  4.76201923076917 14.6677276234568  Z M 10.3485576923076 16.9857574588477  C 10.6290064102564 17.2670717592591  10.7692307692307 17.6065243484223  10.7692307692307 18.0041152263375  C 10.7692307692307 18.4017061042523  10.6290064102564 18.7411586934155  10.3485576923076 19.0224729938269  C 10.0681089743589 19.3037872942386  9.72970085470081 19.4444444444443  9.33333333333326 19.4444444444443  C 8.93696581196582 19.4444444444443  8.59855769230774 19.3037872942386  8.31810897435901 19.0224729938269  C 8.03766025641028 18.7411586934155  7.89743589743591 18.4017061042523  7.89743589743591 18.0041152263375  C 7.89743589743591 17.6065243484223  8.03766025641028 17.2670717592591  8.31810897435901 16.9857574588477  C 8.59855769230774 16.704443158436  8.93696581196582 16.5637860082303  9.33333333333326 16.5637860082303  C 9.72970085470081 16.5637860082303  10.0681089743589 16.704443158436  10.3485576923076 16.9857574588477  Z M 2.45112179487182 9.06394675925912  C 2.73157051282044 9.34526105967086  2.8717948717948 9.68471364883408  2.8717948717948 10.0823045267489  C 2.8717948717948 10.479895404664  2.73157051282044 10.8193479938273  2.45112179487182 11.1006622942386  C 2.17067307692309 11.38197659465  1.83226495726501 11.5226337448561  1.43589743589746 11.5226337448561  C 1.03952991452991 11.5226337448561  0.701121794871824 11.38197659465  0.420673076923094 11.1006622942386  C 0.140224358974365 10.8193479938273  0 10.479895404664  0 10.0823045267489  C 0 9.68471364883408  0.140224358974365 9.34526105967086  0.420673076923094 9.06394675925912  C 0.701121794871824 8.78263245884773  1.03952991452991 8.64197530864203  1.43589743589746 8.64197530864203  C 1.83226495726501 8.64197530864203  2.17067307692309 8.78263245884773  2.45112179487182 9.06394675925912  Z M 15.9350961538462 14.6677276234568  C 16.2155448717948 14.9490419238682  16.3557692307692 15.2884945130314  16.3557692307692 15.6860853909462  C 16.3557692307692 16.0761745541837  16.2136752136752 16.4137517146777  15.9294871794871 16.698816872428  C 15.6452991452991 16.9838820301781  15.3087606837606 17.1264146090534  14.9198717948718 17.1264146090534  C 14.5235042735042 17.1264146090534  14.1850961538462 16.9857574588477  13.9046474358975 16.704443158436  C 13.6241987179487 16.4231288580246  13.4839743589744 16.0836762688614  13.4839743589744 15.6860853909462  C 13.4839743589744 15.2884945130314  13.6241987179487 14.9490419238682  13.9046474358975 14.6677276234568  C 14.1850961538462 14.3864133230451  14.5235042735042 14.2457561728394  14.9198717948718 14.2457561728394  C 15.3162393162393 14.2457561728394  15.6546474358975 14.3864133230451  15.9350961538462 14.6677276234568  Z M 5.01442307692309 3.20698302469134  C 5.36591880341882 3.55956361454048  5.54166666666663 3.98341049382725  5.54166666666663 4.47852366255154  C 5.54166666666663 4.97363683127571  5.36591880341882 5.39748371056248  5.01442307692309 5.7500643004114  C 4.66292735042737 6.10264489026065  4.24038461538464 6.27893518518522  3.7467948717948 6.27893518518522  C 3.2532051282052 6.27893518518522  2.83066239316236 6.10264489026065  2.47916666666663 5.7500643004114  C 2.12767094017101 5.39748371056248  1.95192307692309 4.97363683127571  1.95192307692309 4.47852366255154  C 1.95192307692309 3.98341049382725  2.12767094017101 3.55956361454048  2.47916666666663 3.20698302469134  C 2.83066239316236 2.85440243484209  3.2532051282052 2.67811213991774  3.7467948717948 2.67811213991774  C 4.24038461538464 2.67811213991774  4.66292735042737 2.85440243484209  5.01442307692309 3.20698302469134  Z M 18.2459935897435 9.06394675925912  C 18.5264423076923 9.34526105967086  18.6666666666666 9.68471364883408  18.6666666666666 10.0823045267489  C 18.6666666666666 10.479895404664  18.5264423076923 10.8193479938273  18.2459935897435 11.1006622942386  C 17.9655448717948 11.38197659465  17.6271367521367 11.5226337448561  17.2307692307692 11.5226337448561  C 16.8344017094016 11.5226337448561  16.4959935897435 11.38197659465  16.2155448717948 11.1006622942386  C 15.9350961538462 10.8193479938273  15.7948717948718 10.479895404664  15.7948717948718 10.0823045267489  C 15.7948717948718 9.68471364883408  15.9350961538462 9.34526105967086  16.2155448717948 9.06394675925912  C 16.4959935897435 8.78263245884773  16.8344017094016 8.64197530864203  17.2307692307692 8.64197530864203  C 17.6271367521367 8.64197530864203  17.9655448717948 8.78263245884773  18.2459935897435 9.06394675925912  Z M 10.8589743589744 0.630144032921976  C 11.2777777777777 1.05024005486973  11.4871794871794 1.56035665294928  11.4871794871794 2.16049382716062  C 11.4871794871794 2.76063100137162  11.2777777777777 3.27074759945117  10.8589743589744 3.69084362139927  C 10.4401709401709 4.11093964334702  9.9316239316239 4.3209876543209  9.33333333333326 4.3209876543209  C 8.73504273504273 4.3209876543209  8.22649572649573 4.11093964334702  7.80769230769226 3.69084362139927  C 7.38888888888891 3.27074759945117  7.17948717948718 2.76063100137162  7.17948717948718 2.16049382716062  C 7.17948717948718 1.56035665294928  7.38888888888891 1.05024005486973  7.80769230769226 0.630144032921976  C 8.22649572649573 0.210048010973878  8.73504273504273 0  9.33333333333326 0  C 9.9316239316239 0  10.4401709401709 0.210048010973878  10.8589743589744 0.630144032921976  Z M 16.6923076923076 2.70061728395069  C 17.1858974358975 3.19573045267498  17.4326923076923 3.78836591220841  17.4326923076923 4.47852366255154  C 17.4326923076923 5.17618312757202  17.1858974358975 5.77069401577501  16.6923076923076 6.26205632716062  C 16.1987179487179 6.7534186385459  15.607905982906 6.99909979423865  14.9198717948718 6.99909979423865  C 14.2243589743589 6.99909979423865  13.6316773504273 6.7534186385459  13.1418269230769 6.26205632716062  C 12.6519764957264 5.77069401577501  12.4070512820513 5.17618312757202  12.4070512820513 4.47852366255154  C 12.4070512820513 3.78836591220841  12.6519764957264 3.19573045267498  13.1418269230769 2.70061728395069  C 13.6316773504273 2.20550411522618  14.2243589743589 1.95794753086409  14.9198717948718 1.95794753086409  C 15.607905982906 1.95794753086409  16.1987179487179 2.20550411522618  16.6923076923076 2.70061728395069  Z " fill-rule="nonzero" fill="#333333" stroke="none" transform="matrix(1 0 0 1 817 908 )" />
  </g>
</svg>