<?xml version="1.0" encoding="utf-8"?>
<svg version="1.1" xmlns:xlink="http://www.w3.org/1999/xlink" width="19px" height="21px" xmlns="http://www.w3.org/2000/svg">
  <g transform="matrix(1 0 0 1 -818 -953 )">
    <path d="M 18.6666666666666 4.11954022988505  C 18.6666666666666 2.98151724137915  17.7385185185185 2.05977011494258  16.5925925925925 2.05977011494258  L 15.5555555555555 2.05977011494258  L 15.5555555555555 0  L 13.4814814814814 0  L 13.4814814814814 2.05977011494258  L 5.18518518518522 2.05977011494258  L 5.18518518518522 0  L 3.11111111111109 0  L 3.11111111111109 2.05977011494258  L 2.07407407407413 2.05977011494258  C 0.928148148148125 2.05977011494258  0 2.98151724137915  0 4.11954022988505  L 0 18.5379310344827  C 0 19.6759540229885  0.928148148148125 20.5977011494252  2.07407407407413 20.5977011494252  L 16.5925925925925 20.5977011494252  C 17.7385185185185 20.5977011494252  18.6666666666666 19.6759540229885  18.6666666666666 18.5379310344827  L 18.6666666666666 4.11954022988505  Z M 6.22222222222229 8.23908045977021  C 6.22222222222229 6.53462068965507  7.61703703703711 5.14942528735628  9.33333333333337 5.14942528735628  C 11.0496296296295 5.14942528735628  12.4444444444443 6.53462068965507  12.4444444444443 8.23908045977021  C 12.4444444444443 9.94868965517253  11.0496296296295 11.3287356321839  9.33333333333337 11.3287356321839  C 7.61703703703711 11.3287356321839  6.22222222222229 9.94868965517253  6.22222222222229 8.23908045977021  Z M 15.5555555555555 16.4781609195402  L 15.5555555555555 17.5080459770115  L 3.11111111111109 17.5080459770115  L 3.11111111111109 16.4781609195402  C 3.11111111111109 14.4183908045976  7.25925925925912 13.2855172413791  9.33333333333337 13.2855172413791  C 11.4074074074075 13.2855172413791  15.5555555555555 14.4183908045976  15.5555555555555 16.4781609195402  Z " fill-rule="nonzero" fill="#333333" stroke="none" transform="matrix(1 0 0 1 818 953 )" />
  </g>
</svg>