<?xml version="1.0" encoding="utf-8"?>
<svg version="1.1" xmlns:xlink="http://www.w3.org/1999/xlink" width="44px" height="44px" xmlns="http://www.w3.org/2000/svg">
  <g transform="matrix(1 0 0 1 -491 -2137 )">
    <path d="M 513 2137  C 525.32 2137  535 2146.68  535 2159  C 535 2171.32  525.32 2181  513 2181  C 500.68 2181  491 2171.32  491 2159  C 491 2146.68  500.68 2137  513 2137  Z " fill-rule="nonzero" fill="#f2f2f2" stroke="none" />
    <path d="M 513 2137.5  C 525.04 2137.5  534.5 2146.96  534.5 2159  C 534.5 2171.04  525.04 2180.5  513 2180.5  C 500.96 2180.5  491.5 2171.04  491.5 2159  C 491.5 2146.96  500.96 2137.5  513 2137.5  Z " stroke-width="1" stroke="#e4e4e4" fill="none" />
  </g>
</svg>