<?xml version="1.0" encoding="utf-8"?>
<svg version="1.1" xmlns:xlink="http://www.w3.org/1999/xlink" width="40px" height="31px" xmlns="http://www.w3.org/2000/svg">
  <g transform="matrix(1 0 0 1 -95 -3907 )">
    <path d="M 39.2774193548387 4.19663299663301  C 39.7591397849462 4.6742985409652  40 5.2543209876543  40 5.93670033670031  C 40 6.61907968574633  39.7591397849462 7.19910213243548  39.2774193548387 7.67676767676767  L 20.5935483870968 26.203367003367  L 17.0838709677419 29.6835016835017  C 16.6021505376344 30.1611672278339  16.0172043010753 30.4  15.3290322580645 30.4  C 14.6408602150537 30.4  14.0559139784946 30.1611672278339  13.5741935483871 29.6835016835017  L 10.0645161290323 26.203367003367  L 0.722580645161315 16.9400673400673  C 0.240860215053772 16.4624017957351  0 15.882379349046  0 15.2  C 0 14.517620650954  0.240860215053772 13.9375982042649  0.722580645161315 13.4599326599326  L 4.23225806451615 9.97979797979798  C 4.71397849462363 9.50213243546574  5.29892473118281 9.26329966329968  5.98709677419356 9.26329966329968  C 6.67526881720431 9.26329966329968  7.26021505376343 9.50213243546574  7.74193548387098 9.97979797979798  L 15.3290322580645 17.5286195286195  L 32.258064516129 0.716498316498303  C 32.7397849462366 0.23883277216612  33.3247311827957 0  34.0129032258064 0  C 34.7010752688172 0  35.2860215053764 0.23883277216612  35.7677419354839 0.716498316498303  L 39.2774193548387 4.19663299663301  Z " fill-rule="nonzero" fill="#ffffff" stroke="none" transform="matrix(1 0 0 1 95 3907 )" />
  </g>
</svg>