<?xml version="1.0" encoding="utf-8"?>
<svg version="1.1" xmlns:xlink="http://www.w3.org/1999/xlink" width="32px" height="32px" xmlns="http://www.w3.org/2000/svg">
  <g transform="matrix(1 0 0 1 -483 -3904 )">
    <path d="M 23.5416666666667 21.6666666666667  C 23.8055555555557 21.4027777777778  23.9375 21.0833333333333  23.9375 20.7083333333333  C 23.9375 20.3472222222222  23.8055555555557 20.0347222222222  23.5416666666667 19.7708333333333  L 19.7708333333333 16  L 23.5416666666667 12.2291666666667  C 23.8055555555557 11.9652777777778  23.9375 11.6527777777778  23.9375 11.2916666666667  C 23.9375 10.9166666666667  23.8055555555557 10.5972222222222  23.5416666666667 10.3333333333333  L 21.6666666666667 8.45833333333326  C 21.4027777777778 8.19444444444434  21.0833333333333 8.0625  20.7083333333333 8.0625  C 20.3472222222222 8.0625  20.0347222222222 8.19444444444434  19.7708333333333 8.45833333333326  L 16 12.2291666666667  L 12.2291666666667 8.45833333333326  C 11.9652777777778 8.19444444444434  11.6527777777778 8.0625  11.2916666666667 8.0625  C 10.9166666666667 8.0625  10.5972222222222 8.19444444444434  10.3333333333333 8.45833333333326  L 8.45833333333326 10.3333333333333  C 8.19444444444434 10.5972222222222  8.0625 10.9166666666667  8.0625 11.2916666666667  C 8.0625 11.6527777777778  8.19444444444434 11.9652777777778  8.45833333333326 12.2291666666667  L 12.2291666666667 16  L 8.45833333333326 19.7708333333333  C 8.19444444444434 20.0347222222222  8.0625 20.3472222222222  8.0625 20.7083333333333  C 8.0625 21.0833333333333  8.19444444444434 21.4027777777778  8.45833333333326 21.6666666666667  L 10.3333333333333 23.5416666666667  C 10.5972222222222 23.8055555555557  10.9166666666667 23.9375  11.2916666666667 23.9375  C 11.6527777777778 23.9375  11.9652777777778 23.8055555555557  12.2291666666667 23.5416666666667  L 16 19.7708333333333  L 19.7708333333333 23.5416666666667  C 20.0347222222222 23.8055555555557  20.3472222222222 23.9375  20.7083333333333 23.9375  C 21.0833333333333 23.9375  21.4027777777778 23.8055555555557  21.6666666666667 23.5416666666667  L 23.5416666666667 21.6666666666667  Z M 29.8541666666667 7.96875  C 31.2847222222222 10.4201388888889  32 13.0972222222222  32 16  C 32 18.9027777777778  31.2847222222222 21.5798611111111  29.8541666666667 24.03125  C 28.4236111111111 26.4826388888889  26.4826388888889 28.4236111111111  24.03125 29.8541666666667  C 21.5798611111111 31.2847222222222  18.9027777777778 32  16 32  C 13.0972222222222 32  10.4201388888889 31.2847222222222  7.96875 29.8541666666667  C 5.51736111111109 28.4236111111111  3.57638888888891 26.4826388888889  2.14583333333326 24.03125  C 0.715277777777828 21.5798611111111  0 18.9027777777778  0 16  C 0 13.0972222222222  0.715277777777828 10.4201388888889  2.14583333333326 7.96875  C 3.57638888888891 5.51736111111109  5.51736111111109 3.57638888888891  7.96875 2.14583333333326  C 10.4201388888889 0.715277777777828  13.0972222222222 0  16 0  C 18.9027777777778 0  21.5798611111111 0.715277777777828  24.03125 2.14583333333326  C 26.4826388888889 3.57638888888891  28.4236111111111 5.51736111111109  29.8541666666667 7.96875  Z " fill-rule="nonzero" fill="#ffffff" stroke="none" transform="matrix(1 0 0 1 483 3904 )" />
  </g>
</svg>