<?xml version="1.0" encoding="utf-8"?>
<svg version="1.1" xmlns:xlink="http://www.w3.org/1999/xlink" width="20px" height="20px" xmlns="http://www.w3.org/2000/svg">
  <g transform="matrix(1 0 0 1 -340 -911 )">
    <path d="M 0 8.67857142857133  C 0 3.88800000000003  3.84000000000002 0  8.57142857142858 0  C 13.3028571428571 0  17.1428571428572 3.88800000000003  17.1428571428572 8.67857142857133  C 17.1428571428572 13.4691428571429  13.3028571428571 17.3571428571429  8.57142857142858 17.3571428571429  C 3.84000000000002 17.3571428571429  0 13.4691428571429  0 8.67857142857133  Z M 1.90476190476191 8.67857142857133  C 1.90476190476191 12.4074642857141  4.88761904761904 15.4285714285714  8.57142857142858 15.4285714285714  C 12.2542857142857 15.4285714285714  15.2380952380952 12.4074642857141  15.2380952380952 8.67857142857133  C 15.2380952380952 4.94871428571429  12.2542857142857 1.9285714285715  8.57142857142858 1.9285714285715  C 4.88761904761904 1.9285714285715  1.90476190476191 4.94871428571429  1.90476190476191 8.67857142857133  Z M 15.3057142857143 16.8605357142857  L 16.652380952381 15.4970357142858  L 19.3466666666666 18.2240357142857  L 17.9990476190476 19.5884999999998  L 15.3057142857143 16.8605357142857  Z " fill-rule="nonzero" fill="#333333" stroke="none" transform="matrix(1 0 0 1 340 911 )" />
  </g>
</svg>