<?xml version="1.0" encoding="utf-8"?>
<svg version="1.1" xmlns:xlink="http://www.w3.org/1999/xlink" width="22px" height="22px" xmlns="http://www.w3.org/2000/svg">
  <g transform="matrix(1 0 0 1 -698 -908 )">
    <path d="M 15.984375 18.5382230623819  L 15.0324519230769 12.9355009451796  L 19.078125 8.98298676748584  L 13.4987980769231 8.15788279773153  L 11 3.07417769376184  L 8.50120192307691 8.15788279773153  L 2.921875 8.98298676748584  L 6.96754807692309 12.9355009451796  L 6.00240384615381 18.5382230623819  L 11 15.8899054820415  L 15.984375 18.5382230623819  Z M 21.2596153846154 7.5723251417769  C 21.7532051282052 7.6521739130435  22 7.85623188405793  22 8.18449905482044  C 22 8.37968494013865  21.8854166666667 8.59261499684942  21.65625 8.82328922495276  L 16.8569711538462 13.5343667296786  L 17.9939903846154 20.1884310018903  C 18.0028044871794 20.2505356017643  18.0072115384615 20.3392564587272  18.0072115384615 20.4545935727788  C 18.0072115384615 20.8981978575929  17.8265224358973 21.12  17.4651442307693 21.12  C 17.2976762820513 21.12  17.1213942307693 21.0667674858223  16.9362980769231 20.9603024574669  L 11 17.819584120983  L 5.06370192307691 20.9603024574669  C 4.86979166666674 21.0667674858223  4.69350961538464 21.12  4.53485576923072 21.12  C 4.34975961538464 21.12  4.2109375 21.0556773787019  4.11838942307691 20.9270321361058  C 4.02584134615381 20.7983868935098  3.97956730769226 20.6409073724008  3.97956730769226 20.4545935727788  C 3.97956730769226 20.4013610586011  3.98838141025635 20.3126402016383  4.00600961538464 20.1884310018903  L 5.14302884615381 13.5343667296786  L 0.330528846153811 8.82328922495276  C 0.11017628205127 8.58374291115308  0 8.37081285444231  0 8.18449905482044  C 0 7.85623188405793  0.246794871794805 7.6521739130435  0.740384615384642 7.5723251417769  L 7.37740384615381 6.60083175803402  L 10.3521634615385 0.545633270321332  C 10.5196314102564 0.181877756773815  10.7355769230769 0  11 0  C 11.2644230769231 0  11.4803685897436 0.181877756773815  11.6478365384615 0.545633270321332  L 14.6225961538462 6.60083175803402  L 21.2596153846154 7.5723251417769  Z " fill-rule="nonzero" fill="#333333" stroke="none" transform="matrix(1 0 0 1 698 908 )" />
  </g>
</svg>