<?xml version="1.0" encoding="utf-8"?>
<svg version="1.1" xmlns:xlink="http://www.w3.org/1999/xlink" width="24px" height="20px" xmlns="http://www.w3.org/2000/svg">
  <g transform="matrix(1 0 0 1 -458 -954 )">
    <path d="M 22.2222222222222 1.11111111111109  L 22.2222222222222 4.44444444444446  L 23 4.44444444444446  L 23 15.5555555555555  L 22.2222222222222 15.5555555555555  L 22.2222222222222 18.8888888888889  C 22.2222222222222 19.5025386109231  21.7247608331452 20  21.1111111111111 20  L 1.11111111111109 20  C 0.497461389076818 20  0 19.5025386109231  0 18.8888888888889  L 0 1.11111111111109  C 0 0.497461389076875  0.497461389076818 0  1.11111111111109 0  L 21.1111111111111 0  C 21.7247608331452 0  22.2222222222222 0.497461389076875  22.2222222222222 1.11111111111109  Z M 20 17.7777777777778  L 20 15.5555555555555  L 13.3333333333333 15.5555555555555  C 10.2650847231622 15.5555555555555  7.77777777777777 13.0682486101709  7.77777777777777 10  C 7.77777777777777 6.93175138982906  10.2650847231622 4.44444444444446  13.3333333333333 4.44444444444446  L 20 4.44444444444446  L 20 2.22222222222217  L 2.22222222222223 2.22222222222217  L 2.22222222222223 17.7777777777778  L 20 17.7777777777778  Z M 13.3333333333333 13.3333333333334  L 21.1111111111111 13.3333333333334  L 21.1111111111111 6.66666666666663  L 13.3333333333333 6.66666666666663  C 11.4923841672306 6.66666666666663  10 8.15905083389725  10 10  C 10 11.8409491661027  11.4923841672306 13.3333333333334  13.3333333333333 13.3333333333334  Z M 13.3333333333333 11.1111111111111  L 13.3333333333333 8.88888888888891  L 16.6666666666666 8.88888888888891  L 16.6666666666666 11.1111111111111  L 13.3333333333333 11.1111111111111  Z " fill-rule="nonzero" fill="#333333" stroke="none" transform="matrix(1 0 0 1 458 954 )" />
  </g>
</svg>