<?xml version="1.0" encoding="utf-8"?>
<svg version="1.1" xmlns:xlink="http://www.w3.org/1999/xlink" width="19px" height="20px" xmlns="http://www.w3.org/2000/svg">
  <g transform="matrix(1 0 0 1 -459 -909 )">
    <path d="M 2.85173688616067 16.6947115384617  C 3.004150390625 16.542467948718  3.08035714285722 16.3621794871796  3.08035714285722 16.1538461538462  C 3.08035714285722 15.9455128205128  3.004150390625 15.7652243589744  2.85173688616067 15.6129807692308  C 2.69932338169656 15.4607371794872  2.51883370535722 15.3846153846154  2.31026785714289 15.3846153846154  C 2.10170200892867 15.3846153846154  1.92121233258933 15.4607371794872  1.768798828125 15.6129807692308  C 1.61638532366067 15.7652243589744  1.54017857142867 15.9455128205128  1.54017857142867 16.1538461538462  C 1.54017857142867 16.3621794871796  1.61638532366067 16.542467948718  1.768798828125 16.6947115384617  C 1.92121233258933 16.8469551282053  2.10170200892867 16.9230769230768  2.31026785714289 16.9230769230768  C 2.51883370535722 16.9230769230768  2.69932338169656 16.8469551282053  2.85173688616067 16.6947115384617  Z M 16.6832624162946 10.2043269230768  C 16.8557303292412 9.83573717948718  16.9419642857143 9.51121794871801  16.9419642857143 9.23076923076917  C 16.9419642857143 8.82211538461536  16.7855398995537 8.46354166666674  16.4726911272322 8.15504807692321  C 16.1598423549107 7.84655448717956  15.8028738839287 7.69230769230774  15.4017857142857 7.69230769230774  L 11.1662946428571 7.69230769230774  C 11.1662946428571 7.22756410256409  11.3588169642857 6.58854166666674  11.7438616071429 5.77524038461536  C 12.12890625 4.96193910256409  12.3214285714287 4.31891025641039  12.3214285714287 3.84615384615381  C 12.3214285714287 3.06089743589746  12.1930803571429 2.47996794871801  11.9363839285713 2.10336538461536  C 11.6796875 1.72676282051282  11.1662946428571 1.53846153846166  10.3962053571429 1.53846153846166  C 10.1876395089287 1.74679487179469  10.0352260044643 2.08733974358961  9.93896484375 2.56009615384619  C 9.84270368303567 3.03285256410254  9.72037179129472 3.53565705128199  9.57196916852683 4.06850961538464  C 9.42356654575906 4.60136217948718  9.18491908482133 5.04006410256409  8.85602678571433 5.38461538461536  C 8.67954799107133 5.56891025641039  8.37071010044656 5.93349358974353  7.92951311383933 6.47836538461536  C 7.89742606026789 6.51842948717956  7.80517578125 6.63862179487171  7.65276227678567 6.83894230769226  C 7.50034877232133 7.03926282051282  7.37400599888383 7.20352564102564  7.27373395647317 7.33173076923083  C 7.1734619140625 7.45993589743591  7.03508649553567 7.63020833333326  6.85860770089289 7.84254807692321  C 6.68212890625 8.05488782051282  6.52169363839289 8.23116987179469  6.37730189732133 8.37139423076917  C 6.23291015625 8.51161858974353  6.0784912109375 8.65384615384619  5.91404506138383 8.79807692307679  C 5.74959891183028 8.94230769230774  5.58916364397317 9.05048076923083  5.4327392578125 9.12259615384619  C 5.27631487165183 9.19471153846166  5.13392857142867 9.23076923076917  5.00558035714289 9.23076923076917  L 4.62053571428578 9.23076923076917  L 4.62053571428578 16.9230769230768  L 5.00558035714289 16.9230769230768  C 5.10986328125 16.9230769230768  5.2362060546875 16.9350961538462  5.38460867745539 16.9591346153846  C 5.53301130022317 16.9831730769232  5.66537039620539 17.0092147435896  5.78168596540183 17.0372596153846  C 5.89800153459817 17.0653044871796  6.0504150390625 17.109375  6.23892647879472 17.1694711538462  C 6.42743791852683 17.2295673076923  6.56781877790183 17.275641025641  6.66006905691961 17.3076923076923  C 6.7523193359375 17.3397435897435  6.89470563616067 17.3898237179487  7.08722795758933 17.4579326923077  C 7.27975027901789 17.5260416666667  7.39606584821433 17.568108974359  7.43617466517867 17.5841346153846  C 9.12876674107133 18.1690705128204  10.50048828125 18.4615384615383  11.5513392857143 18.4615384615383  L 13.0072893415179 18.4615384615383  C 14.5474679129466 18.4615384615383  15.3175571986607 17.792467948718  15.3175571986607 16.4543269230768  C 15.3175571986607 16.2459935897435  15.2975027901787 16.0216346153846  15.2573939732143 15.78125  C 15.498046875 15.6530448717947  15.6885637555804 15.4427083333333  15.8289446149553 15.1502403846154  C 15.9693254743304 14.8577724358975  16.0395159040178 14.5633012820513  16.0395159040178 14.2668269230768  C 16.0395159040178 13.9703525641025  15.9673200334822 13.6939102564104  15.8229282924107 13.4375  C 16.2480817522321 13.036858974359  16.4606584821428 12.5600961538462  16.4606584821428 12.0072115384617  C 16.4606584821428 11.806891025641  16.4205496651787 11.5845352564104  16.34033203125 11.3401442307692  C 16.2601143973213 11.0957532051283  16.1598423549107 10.9054487179487  16.0395159040178 10.7692307692308  C 16.2962123325893 10.761217948718  16.5107945033482 10.5729166666667  16.6832624162946 10.2043269230768  Z M 17.5676618303571 7.06730769230774  C 18.1773158482143 7.67628205128199  18.4821428571429 8.39342948717956  18.4821428571429 9.21875  C 18.4821428571429 9.93189102564099  18.2856096540179 10.5849358974359  17.8925432477679 11.1778846153846  C 17.9647391183037 11.4423076923077  18.0008370535713 11.71875  18.0008370535713 12.0072115384617  C 18.0008370535713 12.6241987179487  17.8484235491072 13.2011217948717  17.5435965401787 13.7379807692308  C 17.5676618303571 13.90625  17.5796944754463 14.0785256410256  17.5796944754463 14.2548076923077  C 17.5796944754463 15.0641025641025  17.3390415736607 15.7772435897435  16.8577357700893 16.3942307692308  C 16.8657575334822 17.5080128205128  16.5248325892857 18.3874198717947  15.8349609375 19.0324519230768  C 15.1450892857143 19.677483974359  14.234619140625 20  13.1035505022322 20  L 12.6703752790179 20  L 11.5513392857143 20  C 10.78125 20  10.0211879185268 19.9098557692308  9.27115304129461 19.7295673076923  C 8.5211181640625 19.5492788461538  7.65276227678567 19.286858974359  6.66608537946434 18.9423076923077  C 5.73556082589289 18.6217948717947  5.18205915178567 18.4615384615383  5.00558035714289 18.4615384615383  L 1.54017857142867 18.4615384615383  C 1.11502511160711 18.4615384615383  0.75204031808039 18.3112980769232  0.451224190848166 18.0108173076923  C 0.150408063616169 17.7103365384617  0 17.3477564102565  0 16.9230769230768  L 0 9.23076923076917  C 0 8.80608974358961  0.150408063616169 8.44350961538464  0.451224190848166 8.14302884615381  C 0.75204031808039 7.84254807692321  1.11502511160711 7.69230769230774  1.54017857142867 7.69230769230774  L 4.83712332589289 7.69230769230774  C 5.12590680803567 7.5  5.67539760044633 6.87900641025647  6.485595703125 5.82932692307679  C 6.95085797991067 5.22836538461536  7.38002232142867 4.71554487179469  7.77308872767867 4.29086538461536  C 7.96561104910722 4.09054487179469  8.10799734933039 3.74799679487171  8.20024762834817 3.26322115384619  C 8.29249790736617 2.77844551282044  8.41482979910722 2.27163461538464  8.56724330357133 1.74278846153834  C 8.71965680803567 1.21394230769226  8.96833147321433 0.78125  9.31326729910722 0.444711538461661  C 9.62611607142867 0.148237179487182  9.98709542410711 0  10.3962053571429 0  C 11.0700334821429 0  11.6756766183037 0.130208333333258  12.213134765625 0.390625  C 12.7505929129463 0.651041666666742  13.1597028459821 1.05769230769226  13.4404645647322 1.61057692307679  C 13.7212262834821 2.16346153846166  13.8616071428572 2.90865384615381  13.8616071428572 3.84615384615381  C 13.8616071428572 4.59134615384619  13.6690848214287 5.36057692307679  13.2840401785716 6.15384615384619  L 15.4017857142857 6.15384615384619  C 16.2360491071429 6.15384615384619  16.9580078125 6.45833333333326  17.5676618303571 7.06730769230774  Z " fill-rule="nonzero" fill="#333333" stroke="none" transform="matrix(1 0 0 1 459 909 )" />
  </g>
</svg>