<?xml version="1.0" encoding="utf-8"?>
<svg version="1.1" xmlns:xlink="http://www.w3.org/1999/xlink" width="40px" height="38px" xmlns="http://www.w3.org/2000/svg">
  <defs>
    <filter x="32px" y="949px" width="40px" height="38px" filterUnits="userSpaceOnUse" id="filter2127">
      <feOffset dx="0" dy="4" in="SourceAlpha" result="shadowOffsetInner" />
      <feGaussianBlur stdDeviation="4" in="shadowOffsetInner" result="shadowGaussian" />
      <feComposite in2="shadowGaussian" operator="atop" in="SourceAlpha" result="shadowComposite" />
      <feColorMatrix type="matrix" values="0 0 0 0 0.184313725490196  0 0 0 0 0.470588235294118  0 0 0 0 1  0 0 0 0.337254901960784 0  " in="shadowComposite" />
    </filter>
    <g id="widget2128">
      <path d="M 20.5199999999999 10.8  L 20.5199999999999 20.52  C 20.5199999999999 21.1164675298173  20.0364675298172 21.6  19.4399999999999 21.6  L 4.32000000000005 21.6  C 3.72353247018276 21.6  3.24000000000012 21.1164675298173  3.24000000000012 20.52  L 3.24000000000012 10.8  L 0 10.8  L 11.1531600000001 0.660959999999996  C 11.5652000192157 0.28604517293217  12.1947999807844 0.28604517293217  12.60684 0.660959999999996  L 23.76 10.8  L 20.5199999999999 10.8  Z M 12.96 12.96  L 10.8 12.96  L 10.8 19.44  L 12.96 19.44  L 12.96 12.96  Z " fill-rule="nonzero" fill="#2f78ff" stroke="none" transform="matrix(1 0 0 1 40 953 )" />
    </g>
  </defs>
  <g transform="matrix(1 0 0 1 -32 -949 )">
    <use xlink:href="#widget2128" filter="url(#filter2127)" />
    <use xlink:href="#widget2128" />
  </g>
</svg>