<?xml version="1.0" encoding="utf-8"?>
<svg version="1.1" xmlns:xlink="http://www.w3.org/1999/xlink" width="36px" height="38px" xmlns="http://www.w3.org/2000/svg">
  <defs>
    <filter x="97px" y="949px" width="36px" height="38px" filterUnits="userSpaceOnUse" id="filter2129">
      <feOffset dx="0" dy="4" in="SourceAlpha" result="shadowOffsetInner" />
      <feGaussianBlur stdDeviation="4" in="shadowOffsetInner" result="shadowGaussian" />
      <feComposite in2="shadowGaussian" operator="atop" in="SourceAlpha" result="shadowComposite" />
      <feColorMatrix type="matrix" values="0 0 0 0 0.184313725490196  0 0 0 0 0.470588235294118  0 0 0 0 1  0 0 0 0.337254901960784 0  " in="shadowComposite" />
    </filter>
    <g id="widget2130">
      <path d="M 19.8 20.9  C 19.8 21.5075132248139  19.3075132248139 22  18.7 22  L 3.85000000000005 22  C 1.72370371315148 22  0 20.2762962868485  0 18.15  L 0 3.30000000000002  C 0 1.47746032555837  1.47746032555838 0  3.30000000000001 0  L 18.7 0  C 19.3075132248139 0  19.8 0.492486775186089  19.8 1.10000000000004  L 19.8 20.9  Z M 3.85000000000005 19.8  L 17.6 19.8  L 17.6 16.5  L 3.85000000000005 16.5  C 2.93873016277917 16.5  2.19999999999999 17.2387301627792  2.19999999999999 18.15  C 2.19999999999999 19.0612698372208  2.93873016277917 19.8  3.85000000000005 19.8  Z M 15.4000000000001 2.19999999999998  L 7.69999999999999 2.19999999999998  L 7.69999999999999 11  L 11.55 8.80000000000002  L 15.4000000000001 11  L 15.4000000000001 2.19999999999998  Z " fill-rule="nonzero" fill="#2f78ff" stroke="none" transform="matrix(1 0 0 1 105 953 )" />
    </g>
  </defs>
  <g transform="matrix(1 0 0 1 -97 -949 )">
    <use xlink:href="#widget2130" filter="url(#filter2129)" />
    <use xlink:href="#widget2130" />
  </g>
</svg>