<?xml version="1.0" encoding="utf-8"?>
<svg version="1.1" xmlns:xlink="http://www.w3.org/1999/xlink" width="23px" height="20px" xmlns="http://www.w3.org/2000/svg">
  <g transform="matrix(1 0 0 1 -574 -910 )">
    <path d="M 18.3035714285713 10.2523148148148  C 19.8578042328041 8.6929012345679  20.6349206349206 7.21643518518522  20.6349206349206 5.82291666666663  C 20.6349206349206 5.15104166666663  20.5460482804233 4.55796682098764  20.3683035714286 4.04369212962956  C 20.1905588624338 3.52941743827159  19.9632109788359 3.12090084876547  19.6862599206349 2.81814236111109  C 19.4093088624338 2.51538387345681  19.0724206349206 2.2686149691358  18.6755952380952 2.07783564814815  C 18.2787698412698 1.88705632716051  17.8902116402116 1.75848765432102  17.5099206349206 1.69212962962968  C 17.1296296296296 1.62577160493822  16.724537037037 1.59259259259261  16.2946428571428 1.59259259259261  C 15.8647486772486 1.59259259259261  15.4017857142857 1.69835069444446  14.9057539682539 1.90986689814815  C 14.4097222222222 2.12138310185185  13.9529596560847 2.38681520061732  13.5354662698412 2.70616319444446  C 13.1179728835979 3.02551118827159  12.7604166666666 3.32412229938268  12.4627976190476 3.60199652777771  C 12.1651785714286 3.87987075617286  11.9171626984127 4.13493441358025  11.71875 4.3671875  C 11.5699404761905 4.54967206790127  11.3673941798942 4.64091435185185  11.1111111111111 4.64091435185185  C 10.854828042328 4.64091435185185  10.6522817460317 4.54967206790127  10.5034722222222 4.3671875  C 10.3050595238095 4.13493441358025  10.0570436507936 3.87987075617286  9.75942460317458 3.60199652777771  C 9.46180555555554 3.32412229938268  9.1042493386243 3.02551118827159  8.68675595238085 2.70616319444446  C 8.26926256613751 2.38681520061732  7.8125 2.12138310185185  7.31646825396831 1.90986689814815  C 6.82043650793651 1.69835069444446  6.35747354497357 1.59259259259261  5.9275793650794 1.59259259259261  C 5.49768518518522 1.59259259259261  5.09259259259261 1.62577160493822  4.71230158730157 1.69212962962968  C 4.33201058201053 1.75848765432102  3.94345238095241 1.88705632716051  3.54662698412699 2.07783564814815  C 3.14980158730157 2.2686149691358  2.81291335978835 2.51538387345681  2.53596230158723 2.81814236111109  C 2.25901124338623 3.12090084876547  2.03166335978835 3.52941743827159  1.85391865079362 4.04369212962956  C 1.67617394179888 4.55796682098764  1.58730158730157 5.15104166666663  1.58730158730157 5.82291666666663  C 1.58730158730157 7.21643518518522  2.36028439153438 8.68875385802471  3.90625 10.2398726851852  L 11.1111111111111 17.2074652777778  L 18.3035714285713 10.2523148148148  Z M 20.6473214285713 1.54282407407413  C 21.6972552910053 2.57137345679007  22.2222222222222 3.99807098765427  22.2222222222222 5.82291666666663  C 22.2222222222222 7.65605709876547  21.2756283068783 9.52237654320982  19.3824404761905 11.421875  L 11.656746031746 18.8871527777778  C 11.5079365079365 19.0364583333334  11.3260582010582 19.1111111111111  11.1111111111111 19.1111111111111  C 10.8961640211639 19.1111111111111  10.7142857142857 19.0364583333334  10.5654761904761 18.8871527777778  L 2.82738095238096 11.3969907407408  C 2.74470899470896 11.3306327160494  2.63103505291008 11.2228009259259  2.4863591269841 11.0734953703703  C 2.34168320105823 10.9241898148148  2.11226851851859 10.6525366512345  1.79811507936506 10.2585358796297  C 1.48396164021165 9.86453510802471  1.20287698412699 9.46016589506166  0.954861111111086 9.04542824074076  C 0.706845238095298 8.63069058641975  0.485697751322732 8.12885802469134  0.291418650793617 7.53993055555554  C 0.0971395502645009 6.95100308641975  0 6.37866512345681  0 5.82291666666663  C 0 3.99807098765427  0.524966931216909 2.57137345679007  1.57490079365084 1.54282407407413  C 2.62483465608466 0.514274691357969  4.07572751322755 0  5.9275793650794 0  C 6.44014550264546 0  6.9630456349206 0.0891685956789843  7.4962797619047 0.267505787037067  C 8.02951388888891 0.445842978395035  8.5255456349206 0.68639081790127  8.984375 0.989149305555543  C 9.4432043650794 1.29190779320993  9.83796296296293 1.57600308641975  10.1686507936507 1.84143518518522  C 10.4993386243386 2.10686728395058  10.813492063492 2.38888888888891  11.1111111111111 2.6875  C 11.4087301587301 2.38888888888891  11.7228835978835 2.10686728395058  12.0535714285714 1.84143518518522  C 12.3842592592592 1.57600308641975  12.7790178571428 1.29190779320993  13.2378472222222 0.989149305555543  C 13.6966765873016 0.68639081790127  14.1927083333333 0.445842978395035  14.7259424603175 0.267505787037067  C 15.2591765873016 0.0891685956789843  15.7820767195767 0  16.2946428571428 0  C 18.1464947089946 0  19.5973875661375 0.514274691357969  20.6473214285713 1.54282407407413  Z " fill-rule="nonzero" fill="#333333" stroke="none" transform="matrix(1 0 0 1 574 910 )" />
  </g>
</svg>