<?xml version="1.0" encoding="utf-8"?>
<svg version="1.1" xmlns:xlink="http://www.w3.org/1999/xlink" width="20px" height="20px" xmlns="http://www.w3.org/2000/svg">
  <g transform="matrix(1 0 0 1 -402 -996 )">
    <path d="M 15.5859375 11.4192708333336  C 15.7508680555554 11.2543402777783  15.8333333333337 11.0590277777783  15.8333333333337 10.8333333333336  L 15.8333333333337 9.1666666666664  C 15.8333333333337 8.94097222222172  15.7508680555554 8.74565972222172  15.5859375 8.5807291666664  C 15.4210069444446 8.41579861111086  15.2256944444446 8.3333333333336  15 8.3333333333336  L 11.6666666666663 8.3333333333336  L 11.6666666666663 5  C 11.6666666666663 4.77430555555543  11.5842013888891 4.57899305555543  11.4192708333337 4.4140625  C 11.2543402777783 4.24913194444457  11.0590277777783 4.16666666666629  10.8333333333337 4.16666666666629  L 9.16666666666629 4.16666666666629  C 8.94097222222172 4.16666666666629  8.74565972222172 4.24913194444457  8.58072916666629 4.4140625  C 8.41579861111086 4.57899305555543  8.33333333333371 4.77430555555543  8.33333333333371 5  L 8.33333333333371 8.3333333333336  L 5 8.3333333333336  C 4.77430555555543 8.3333333333336  4.57899305555543 8.41579861111086  4.4140625 8.5807291666664  C 4.24913194444457 8.74565972222172  4.16666666666629 8.94097222222172  4.16666666666629 9.1666666666664  L 4.16666666666629 10.8333333333336  C 4.16666666666629 11.0590277777783  4.24913194444457 11.2543402777783  4.4140625 11.4192708333336  C 4.57899305555543 11.5842013888891  4.77430555555543 11.6666666666664  5 11.6666666666664  L 8.33333333333371 11.6666666666664  L 8.33333333333371 15  C 8.33333333333371 15.2256944444447  8.41579861111086 15.4210069444447  8.58072916666629 15.5859375  C 8.74565972222172 15.7508680555553  8.94097222222172 15.8333333333336  9.16666666666629 15.8333333333336  L 10.8333333333337 15.8333333333336  C 11.0590277777783 15.8333333333336  11.2543402777783 15.7508680555553  11.4192708333337 15.5859375  C 11.5842013888891 15.4210069444447  11.6666666666663 15.2256944444447  11.6666666666663 15  L 11.6666666666663 11.6666666666664  L 15 11.6666666666664  C 15.2256944444446 11.6666666666664  15.4210069444446 11.5842013888891  15.5859375 11.4192708333336  Z M 18.6588541666663 4.98046875  C 19.5529513888891 6.51258680555532  20 8.18576388888914  20 10  C 20 11.8142361111109  19.5529513888891 13.4874131944447  18.6588541666663 15.01953125  C 17.7647569444446 16.5516493055553  16.5516493055554 17.7647569444447  15.01953125 18.6588541666664  C 13.4874131944446 19.5529513888891  11.8142361111109 20  10 20  C 8.18576388888914 20  6.51258680555543 19.5529513888891  4.98046875 18.6588541666664  C 3.44835069444457 17.7647569444447  2.23524305555543 16.5516493055553  1.34114583333371 15.01953125  C 0.447048611110858 13.4874131944447  0 11.8142361111109  0 10  C 0 8.18576388888914  0.447048611110858 6.51258680555532  1.34114583333371 4.98046875  C 2.23524305555543 3.44835069444457  3.44835069444457 2.23524305555543  4.98046875 1.34114583333371  C 6.51258680555543 0.447048611110858  8.18576388888914 0  10 0  C 11.8142361111109 0  13.4874131944446 0.447048611110858  15.01953125 1.34114583333371  C 16.5516493055554 2.23524305555543  17.7647569444446 3.44835069444457  18.6588541666663 4.98046875  Z " fill-rule="nonzero" fill="#333333" stroke="none" transform="matrix(1 0 0 1 402 996 )" />
  </g>
</svg>