<?xml version="1.0" encoding="utf-8"?>
<svg version="1.1" xmlns:xlink="http://www.w3.org/1999/xlink" width="19px" height="20px" xmlns="http://www.w3.org/2000/svg">
  <g transform="matrix(1 0 0 1 -636 -909 )">
    <path d="M 6.54947916666663 7.58958899456525  C 6.62760416666663 7.66743093297111  6.66666666666663 7.76689563204513  6.66666666666663 7.88798309178753  L 6.66666666666663 15.3608091787439  C 6.66666666666663 15.4818966384863  6.62760416666663 15.5813613375603  6.54947916666663 15.6592032759662  C 6.47135416666663 15.7370452143721  6.37152777777771 15.7759661835748  6.25 15.7759661835748  L 5.41666666666663 15.7759661835748  C 5.29513888888891 15.7759661835748  5.1953125 15.7370452143721  5.1171875 15.6592032759662  C 5.0390625 15.5813613375603  5 15.4818966384863  5 15.3608091787439  L 5 7.88798309178753  C 5 7.76689563204513  5.0390625 7.66743093297111  5.1171875 7.58958899456525  C 5.1953125 7.51174705615938  5.29513888888891 7.4728260869565  5.41666666666663 7.4728260869565  L 6.25 7.4728260869565  C 6.37152777777771 7.4728260869565  6.47135416666663 7.51174705615938  6.54947916666663 7.58958899456525  Z M 9.8828125 7.58958899456525  C 9.9609375 7.66743093297111  10 7.76689563204513  10 7.88798309178753  L 10 15.3608091787439  C 10 15.4818966384863  9.9609375 15.5813613375603  9.8828125 15.6592032759662  C 9.8046875 15.7370452143721  9.70486111111109 15.7759661835748  9.58333333333337 15.7759661835748  L 8.75 15.7759661835748  C 8.62847222222229 15.7759661835748  8.52864583333337 15.7370452143721  8.45052083333337 15.6592032759662  C 8.37239583333337 15.5813613375603  8.33333333333337 15.4818966384863  8.33333333333337 15.3608091787439  L 8.33333333333337 7.88798309178753  C 8.33333333333337 7.76689563204513  8.37239583333337 7.66743093297111  8.45052083333337 7.58958899456525  C 8.52864583333337 7.51174705615938  8.62847222222229 7.4728260869565  8.75 7.4728260869565  L 9.58333333333337 7.4728260869565  C 9.70486111111109 7.4728260869565  9.8046875 7.51174705615938  9.8828125 7.58958899456525  Z M 13.2161458333334 7.58958899456525  C 13.2942708333334 7.66743093297111  13.3333333333334 7.76689563204513  13.3333333333334 7.88798309178753  L 13.3333333333334 15.3608091787439  C 13.3333333333334 15.4818966384863  13.2942708333334 15.5813613375603  13.2161458333334 15.6592032759662  C 13.1380208333334 15.7370452143721  13.0381944444443 15.7759661835748  12.9166666666666 15.7759661835748  L 12.0833333333334 15.7759661835748  C 11.9618055555555 15.7759661835748  11.8619791666666 15.7370452143721  11.7838541666666 15.6592032759662  C 11.7057291666666 15.5813613375603  11.6666666666666 15.4818966384863  11.6666666666666 15.3608091787439  L 11.6666666666666 7.88798309178753  C 11.6666666666666 7.76689563204513  11.7057291666666 7.66743093297111  11.7838541666666 7.58958899456525  C 11.8619791666666 7.51174705615938  11.9618055555555 7.4728260869565  12.0833333333334 7.4728260869565  L 12.9166666666666 7.4728260869565  C 13.0381944444443 7.4728260869565  13.1380208333334 7.51174705615938  13.2161458333334 7.58958899456525  Z M 14.9088541666666 17.8063434103261  C 14.9696180555555 17.6463349813808  15 17.4711906199678  15 17.2809103260869  L 15 5  L 3.33333333333326 5  L 3.33333333333326 17.2809103260869  C 3.33333333333326 17.4711906199678  3.36371527777771 17.6463349813808  3.42447916666663 17.8063434103261  C 3.48524305555543 17.9663518392714  3.54817708333326 18.08311474688  3.61328125000011 18.1566321331521  C 3.67838541666663 18.2301495194242  3.72395833333337 18.2669082125603  3.75 18  L 14.5833333333334 18  C 14.609375 18.2669082125603  14.6549479166666 18.2301495194242  14.7200520833334 18.1566321331521  C 14.78515625 18.08311474688  14.8480902777778 17.9663518392714  14.9088541666666 17.8063434103261  Z M 6.88802083333337 1.80333823973433  L 6.25 3.32125603864733  L 12.0833333333334 3.32125603864733  L 11.4583333333334 1.80333823973433  C 11.3975694444445 1.72549630132858  11.3237847222222 1.67792622785828  11.2369791666666 1.66062801932367  L 7.109375 1.66062801932367  C 7.02256944444446 1.67792622785828  6.94878472222229 1.72549630132858  6.88802083333337 1.80333823973433  Z M 18.2161458333334 3.43801894625608  C 18.2942708333334 3.51586088466195  18.3333333333334 3.61532558373597  18.3333333333334 3.73641304347825  L 18.3333333333334 4.56672705314008  C 18.3333333333334 4.68781451288237  18.2942708333334 4.7872792119565  18.2161458333334 4.86512115036226  C 18.1380208333334 4.94296308876812  18.0381944444445 4.98188405797111  17.9166666666666 4.98188405797111  L 16.6666666666666 4.98188405797111  L 16.6666666666666 17.2809103260869  C 16.6666666666666 17.9987859802737  16.4626736111112 18.6193592114533  16.0546875 19.1426300196256  C 15.6467013888889 19.6659008277979  15.15625 19.927536231884  14.5833333333334 20  L 3.75 20  C 3.17708333333337 19.927536231884  2.68663194444446 19.6745499320652  2.27864583333337 19.1685773324275  C 1.87065972222217 18.6626047327899  1.66666666666663 18.0506806058777  2 17.3328049516908  L 2 4.98188405797111  L 0.416666666666629 4.98188405797111  C 0.2951388888888 4.98188405797111  0.1953125 4.94296308876812  0.1171875 4.86512115036226  C 0.0390624999998863 4.7872792119565  0 4.68781451288237  0 4.56672705314008  L 0 3.73641304347825  C 0 3.61532558373597  0.0390624999998863 3.51586088466195  0.1171875 3.43801894625608  C 0.1953125 3.36017700785021  0.2951388888888 3.32125603864733  0.416666666666629 3.32125603864733  L 4.44010416666663 3.32125603864733  L 5.3515625 1.15465541968592  C 5.48177083333337 0.834638561795373  5.71614583333337 0.562191777375119  6.0546875 0.337315066425163  C 6.39322916666663 0.112438355475092  6.73611111111109 0  7.08333333333337 0  L 11.25 0  C 11.5972222222223 0  11.9401041666666 0.112438355475092  12.2786458333334 0.337315066425163  C 12.6171875 0.562191777375119  12.8515625 0.834638561795373  12.9817708333334 1.15465541968592  L 13.8932291666666 3.32125603864733  L 17.9166666666666 3.32125603864733  C 18.0381944444445 3.32125603864733  18.1380208333334 3.36017700785021  18.2161458333334 3.43801894625608  Z " fill-rule="nonzero" fill="#333333" stroke="none" transform="matrix(1 0 0 1 636 909 )" />
  </g>
</svg>