<?xml version="1.0" encoding="utf-8"?>
<svg version="1.1" xmlns:xlink="http://www.w3.org/1999/xlink" width="20px" height="20px" xmlns="http://www.w3.org/2000/svg">
  <g transform="matrix(1 0 0 1 -577 -996 )">
    <path d="M 20 10  C 20 15.523  15.523 20  10 20  C 4.47700000000003 20  0 15.523  0 10  C 0 4.47699999999998  4.47700000000003 0  10 0  C 15.523 0  20 4.47699999999998  20 10  Z M 12.828 5.75700000000006  L 10 8.58600000000001  L 7.17200000000003 5.75700000000006  L 5.75700000000001 7.17200000000003  L 8.58600000000001 10  L 5.75700000000001 12.828  L 7.17200000000003 14.2429999999999  L 10 11.414  L 12.828 14.2429999999999  L 14.243 12.828  L 11.414 10  L 14.243 7.17200000000003  L 12.828 5.75700000000006  Z " fill-rule="nonzero" fill="#333333" stroke="none" transform="matrix(1 0 0 1 577 996 )" />
  </g>
</svg>