<?xml version="1.0" encoding="utf-8"?>
<svg version="1.1" xmlns:xlink="http://www.w3.org/1999/xlink" width="17px" height="22px" xmlns="http://www.w3.org/2000/svg">
  <g transform="matrix(1 0 0 1 -701 -996 )">
    <path d="M 4.17523809523811 16.7619047619048  L 4.17628571428577 16.7619047619048  C 3.86514285714281 15.4282857142857  2.4613333333333 14.3377142857143  1.88514285714291 13.6190476190476  C 0.695546018523601 12.1327526289026  0.0474101943756295 10.2857394944469  0.0474101943756295 8.3820027909652  C 0.0474101943756295 3.75333060190712  3.79969038626996 0.00105041001285144  8.42836257532804 0.00105041001285144  C 13.0570347643861 0.00105041001285144  16.8093149562804 3.75333060190712  16.8093149562804 8.3820027909652  C 16.8093149562804 10.2866601578469  16.1605530641012 12.1345103182506  14.9699047619048 13.6211428571428  C 14.3937142857143 14.3387619047619  12.9920000000001 15.4293333333333  12.6808571428571 16.7619047619048  L 4.17523809523811 16.7619047619048  Z M 4.2380952380953 18.8571428571428  L 12.6190476190477 18.8571428571428  L 12.6190476190477 19.9047619047619  C 12.6190476190477 21.0619299520264  11.6809775710741 22  10.5238095238095 22  L 6.33333333333337 22  C 5.17616528606879 22  4.2380952380953 21.0619299520264  4.2380952380953 19.9047619047619  L 4.2380952380953 18.8571428571428  Z M 12.0952380952381 8.38619047619045  L 9.47619047619048 8.38619047619045  L 9.47619047619048 4.1904761904762  L 4.76190476190482 10.4814285714286  L 7.38095238095241 10.4814285714286  L 7.38095238095241 14.6719047619048  L 12.0952380952381 8.38619047619045  Z " fill-rule="nonzero" fill="#333333" stroke="none" transform="matrix(1 0 0 1 701 996 )" />
  </g>
</svg>