<?xml version="1.0" encoding="utf-8"?>
<svg version="1.1" xmlns:xlink="http://www.w3.org/1999/xlink" width="22px" height="22px" xmlns="http://www.w3.org/2000/svg">
  <g transform="matrix(1 0 0 1 -577 -953 )">
    <path d="M 18.938 7  L 20 7  C 21.1045694996616 7  22 7.89543050033841  22 9  L 22 13  C 22 14.1045694996616  21.1045694996616 15  20 15  L 18.938 15  C 18.4335919221127 19.0000597664623  15.0317372979431 21.999931569081  11 22  L 11 20  C 14.3137084989848 20  17 17.3137084989848  17 14  L 17 8  C 17 4.68629150101524  14.3137084989848 2  11 2  C 7.68629150101524 2  5 4.68629150101524  5 8  L 5 15  L 2 15  C 0.895430500338413 15  0 14.1045694996616  0 13  L 0 9  C 0 7.89543050033841  0.895430500338413 7  2 7  L 3.062 7  C 3.5669051721659 3.00036735817289  6.96862424196791 0.0010763443969708  11 0.0010763443969708  C 15.0313757580321 0.0010763443969708  18.4330948278341 3.00036735817289  18.938 7  Z M 11 16  C 9.50045836887113 16.0023041322686  8.03074027075804 15.5811467055687  6.76 14.785  L 7.82 13.089  C 8.77307593740426 13.6860346506599  9.87536636341618 14.0018165934576  11 14  C 12.1246336365838 14.0018165934576  13.2269240625957 13.6860346506599  14.18 13.089  L 15.24 14.785  C 13.969259729242 15.5811467055687  12.4995416311289 16.0023041322686  11 16  Z " fill-rule="nonzero" fill="#333333" stroke="none" transform="matrix(1 0 0 1 577 953 )" />
  </g>
</svg>