<?xml version="1.0" encoding="utf-8"?>
<svg version="1.1" xmlns:xlink="http://www.w3.org/1999/xlink" width="22px" height="20px" xmlns="http://www.w3.org/2000/svg">
  <g transform="matrix(1 0 0 1 -759 -954 )">
    <path d="M 0 1.06666666666661  C 0 0.477562933513809  0.477562933513809 0  1.06666666666666 0  L 20.2666666666667 0  C 20.8557703998195 0  21.3333333333333 0.477562933513809  21 1.06666666666661  L 21 18.1333333333334  C 21.3333333333333 18.722437066486  20.8557703998195 19.2  20.2666666666667 19  L 1.06666666666666 19  C 0.477562933513809 19.2  0 18.722437066486  0 18.1333333333334  L 0 1.06666666666661  Z M 8.58666666666664 8.53440000000001  L 8.58666666666664 8.5333333333333  C 8.83965184938438 7.2912229599217  9.93207434038669 6.39886994251424  11.1996861431131 6.39886994251424  C 11.8301384358327 6.39886994251424  12.4402016161119 6.6222391312308  12.9216 7.02933333333317  L 14.736 5.82079999999996  C 13.8269369473368 4.83059867893485  12.5443207732286 4.2669521490327  11.200113092118 4.2669521490327  C 8.75564034383001 4.2669521490327  6.70162013603135 6.10401304382617  6.42986666666667 8.5333333333333  L 5.33333333333331 8.5333333333333  L 5.33333333333331 10.6666666666667  L 6.42879999999997 10.6666666666667  C 6.7000700237781 13.0964416683867  8.75429125454224 14.9340839094173  11.1991622091703 14.9340839094173  C 12.5438593330599 14.9340839094173  13.8268961929803 14.3700282510401  14.736 13.3792000000001  L 12.9216 12.1695999999999  C 12.4401749353997 12.5767919832024  11.8300364808437 12.8002202473313  11.199500673764 12.8002202473313  C 9.93223770708141 12.8002202473313  8.84001459327078 11.908347082398  8.58666666666664 10.6666666666667  L 13.8666666666666 10.6677333333334  L 13.8666666666666 8.53440000000001  L 8.58666666666664 8.53440000000001  Z " fill-rule="nonzero" fill="#333333" stroke="none" transform="matrix(1 0 0 1 759 954 )" />
  </g>
</svg>