<?xml version="1.0" encoding="utf-8"?>
<svg version="1.1" xmlns:xlink="http://www.w3.org/1999/xlink" width="19px" height="21px" xmlns="http://www.w3.org/2000/svg">
  <g transform="matrix(1 0 0 1 -518 -996 )">
    <path d="M 9.00043274207633 2.99956725792367  C 11.0420175009095 2.99956725792367  13.0229399395014 3.69369558938911  14.6180000000001 4.96799999999996  L 16.071 3.51499999999999  L 17.485 4.92900000000009  L 16.032 6.38200000000006  C 17.3063044106108 7.97706006049862  18.0004327420763 9.95798249909058  18.0004327420763 11.9995672579238  C 18.0004327420763 16.9701300064007  13.9709954905535 20.9995672579236  9.00043274207633 20.9995672579236  C 4.02986999359916 20.9995672579236  0.000432742076441173 16.9701300064007  0.000432742076441173 11.9995672579238  C 0.000432742076441173 7.02900450944651  4.02986999359916 2.99956725792367  9.00043274207633 2.99956725792367  Z M 10 7.00000000000011  L 8 7.00000000000011  L 8 12.9999999999999  L 10 12.9999999999999  L 10 7.00000000000011  Z M 5 2  L 5 0  L 13 0  L 13 2  L 5 2  Z " fill-rule="nonzero" fill="#333333" stroke="none" transform="matrix(1 0 0 1 518 996 )" />
  </g>
</svg>