<?xml version="1.0" encoding="utf-8"?>
<svg version="1.1" xmlns:xlink="http://www.w3.org/1999/xlink" width="20px" height="20px" xmlns="http://www.w3.org/2000/svg">
  <g transform="matrix(1 0 0 1 -340 -997 )">
    <path d="M 20 17  C 20 17.5522847498307  19.5522847498307 18  19 18  L 11 18  L 11 3  C 11 1.34314575050757  12.3431457505076 0  14 0  L 19 0  C 19.5522847498307 0  20 0.447715250169267  20 1  L 20 17  Z M 9 3  L 9 18  L 1 18  C 0.447715250169267 18  0 17.5522847498307  0 17  L 0 1  C 0 0.447715250169267  0.447715250169267 0  1 0  L 6 0  C 7.65685424949243 0  9 1.34314575050757  9 3  Z M 9 20  L 9 18  L 11 18  L 11 20  L 9 20  Z " fill-rule="nonzero" fill="#333333" stroke="none" transform="matrix(1 0 0 1 340 997 )" />
  </g>
</svg>