<?xml version="1.0" encoding="utf-8"?>
<svg version="1.1" xmlns:xlink="http://www.w3.org/1999/xlink" width="20px" height="20px" xmlns="http://www.w3.org/2000/svg">
  <g transform="matrix(1 0 0 1 -880 -908 )">
    <path d="M 19 18.0000002813817  L 11 18.0000002813817  L 11 20  L 9 20  L 9 18.0000002813817  L 1 18.0000002813817  C 0.447715250169153 18.0000002813817  0 17.552285094202  0 17.0000004220726  L 0 1.00000267312669  C 0 0.447718000997384  0.447715250169153 0  1 0  L 7 0  C 8.14824240222879 -0.00135951875654428  9.24141206064837 0.492024317662185  10 1.35400262332212  C 10.7585879393516 0.492024317662185  11.8517575977712 -0.00135951875654428  13 0  L 19 0  C 19.5522847498308 0  20 0.447718000997384  20 1.00000267312669  L 20 17.0000004220726  C 20 17.552285094202  19.5522847498308 18.0000002813817  19 18.0000002813817  Z M 11 16.0000005627635  L 18 16.0000005627635  L 18 2.00000253243581  L 13 2.00000253243581  C 11.8954305003384 2.00000253243581  11 2.89543290679535  11 4.00000225105407  L 11 16.0000005627635  Z M 2 16.0000005627635  L 9 16.0000005627635  L 9 4.00000225105407  C 9 2.89543290679535  8.10456949966158 2.00000253243581  7 2.00000253243581  L 2 2.00000253243581  L 2 16.0000005627635  Z " fill-rule="nonzero" fill="#333333" stroke="none" transform="matrix(1 0 0 1 880 908 )" />
  </g>
</svg>