<?xml version="1.0" encoding="utf-8"?>
<svg version="1.1" xmlns:xlink="http://www.w3.org/1999/xlink" width="23px" height="22px" xmlns="http://www.w3.org/2000/svg">
  <g transform="matrix(1 0 0 1 -339 -953 )">
    <path d="M 0.740666666666669 9.73552380952384  L 10.3714285714286 0.104761904761915  L 20.7418095238096 1.58714285714285  L 22.2231428571429 11.9585714285714  L 12.5934285714286 21.5882857142857  C 12.1843334889197 21.9972572687296  11.5211903206042 21.9972572687296  11.1120952380952 21.5882857142857  L 0.740666666666669 11.2168571428572  C 0.331695112222718 10.8077620603482  0.331695112222718 10.1446188920327  0.740666666666669 9.73552380952384  Z M 18.8906666666666 3.43828571428571  L 11.1120952380952 2.32780952380955  L 2.96266666666665 10.4761904761905  L 11.8527619047619 19.3652380952381  L 20.0011428571428 11.2168571428572  L 18.8906666666666 3.43828571428571  Z M 14.8154285714285 9.60903289092005  C 14.2593977363366 9.60903289092005  13.7261513094521 9.38809978826009  13.3330476190476 8.99485714285714  C 12.940125408113 8.60179604107378  12.7193956805085 8.06877413899974  12.7193956805085 7.51300000000003  C 12.7193956805085 6.35539299920111  13.6578215706297 5.41696710907996  14.8154285714285 5.41696710907996  C 15.3714594065206 5.41696710907996  15.904705833405 5.63790021173992  16.2978095238095 6.03114285714287  C 16.6907317347442 6.42420395892617  16.9114614623486 6.95722586100027  16.9114614623486 7.51300000000003  C 16.9114614623486 8.6706070007989  15.9730355722275 9.60903289092005  14.8154285714285 9.60903289092005  Z " fill-rule="nonzero" fill="#333333" stroke="none" transform="matrix(1 0 0 1 339 953 )" />
  </g>
</svg>