<?xml version="1.0" encoding="utf-8"?>
<svg version="1.1" xmlns:xlink="http://www.w3.org/1999/xlink" width="18px" height="20px" xmlns="http://www.w3.org/2000/svg">
  <g transform="matrix(1 0 0 1 -402 -954 )">
    <path d="M 18 19  C 18 19.5522847498308  17.5522847498308 20  16.9999999999999 20  L 0.999999999999997 20  C 0.447715250169152 20  0 19.5522847498308  0 19  L 0 1  C 0 0.447715250169153  0.447715250169152 0  0.999999999999997 0  L 16.9999999999999 0  C 17.5522847498308 0  18 0.447715250169153  18 1  L 18 19  Z M 2 18  L 16 18  L 16 2  L 2 2  L 2 18  Z M 3.99999999999999 8  L 3.99999999999999 4  L 7.99999999999997 4  L 7.99999999999997 8  L 3.99999999999999 8  Z M 3.99999999999999 12  L 3.99999999999999 10  L 14.0000000000001 10  L 14.0000000000001 12  L 3.99999999999999 12  Z M 3.99999999999999 16  L 3.99999999999999 14  L 14.0000000000001 14  L 14.0000000000001 16  L 3.99999999999999 16  Z M 9.99999999999997 7  L 9.99999999999997 5  L 14.0000000000001 5  L 14.0000000000001 7  L 9.99999999999997 7  Z " fill-rule="nonzero" fill="#333333" stroke="none" transform="matrix(1 0 0 1 402 954 )" />
  </g>
</svg>