<?xml version="1.0" encoding="utf-8"?>
<svg version="1.1" xmlns:xlink="http://www.w3.org/1999/xlink" width="21px" height="20px" xmlns="http://www.w3.org/2000/svg">
  <g transform="matrix(1 0 0 1 -879 -953 )">
    <path d="M 0.673333333333403 8.85047619047623  L 9.42857142857144 0.0952380952380736  L 18.8561904761905 1.44285714285706  L 20.2028571428572 10.8714285714286  L 11.4485714285714 19.6257142857144  C 11.0766668081087 19.997506607936  10.4738093823674 19.997506607936  10.1019047619047 19.6257142857144  L 0.673333333333403 10.1971428571428  C 0.301541011111567 9.82523823668021  0.301541011111567 9.22238081093883  0.673333333333403 8.85047619047623  Z M 11.5637604172997 6.82999999999993  C 11.5637604172997 7.33530397128493  11.7645377414633 7.81990215943756  12.1219047619047 8.17714285714283  C 12.4791067426818 8.53421857352237  12.9635008173705 8.73481101127163  13.4685714285714 8.73481101127163  C 14.5205695014066 8.73481101127163  15.3733824398432 7.88199807283513  15.3733824398432 6.82999999999993  C 15.3733824398432 6.32469602871515  15.1726051156795 5.84009784056252  14.8152380952381 5.48285714285703  C 14.458036114461 5.12578142647772  13.9736420397724 4.92518898872822  13.4685714285714 4.92518898872822  C 12.4165733557363 4.92518898872822  11.5637604172997 5.77800192716495  11.5637604172997 6.82999999999993  Z " fill-rule="nonzero" fill="#333333" stroke="none" transform="matrix(1 0 0 1 879 953 )" />
  </g>
</svg>