<?xml version="1.0" encoding="utf-8"?>
<svg version="1.1" xmlns:xlink="http://www.w3.org/1999/xlink" width="21px" height="19px" xmlns="http://www.w3.org/2000/svg">
  <g transform="matrix(1 0 0 1 -636 -954 )">
    <path d="M 0 12.1660828174506  L 0 6.07392564336226  C 0 6.07257171279594  0 6.07121778196563  0 6.06986385109622  C 0 2.71757061258654  2.71757169092803 0  6.0698662596393 0  C 6.07324449196426 0  6.07662272369987 0  6.08000095131581 0  L 14.1866670743734 0  C 17.5438401825847 0  20.2666666666665 2.73094052737463  20 6.07392564336226  L 20 18  L 6.08000095131581 18  C 2.72282784310471 18.2400000000001  0 15.5090679334385  0 12.1660828174506  Z M 14.1866670743734 8.10667136711822  L 12.1600005436089 8.10667136711822  L 12.1600005436089 10.1333370936945  L 14.1866670743734 10.1333370936945  L 14.1866670743734 8.10667136711822  Z M 8.1066674820803 8.10667136711822  L 6.08000095131581 8.10667136711822  L 6.08000095131581 10.1333370936945  L 8.1066674820803 10.1333370936945  L 8.1066674820803 8.10667136711822  Z " fill-rule="nonzero" fill="#333333" stroke="none" transform="matrix(1 0 0 1 636 954 )" />
  </g>
</svg>