<?xml version="1.0" encoding="utf-8"?>
<svg version="1.1" xmlns:xlink="http://www.w3.org/1999/xlink" width="20px" height="20px" xmlns="http://www.w3.org/2000/svg">
  <g transform="matrix(1 0 0 1 -700 -953 )">
    <path d="M 1.0526315789474 1  L 14.481052631579 1  L 6.62210526315789 8.9115789473683  L 6.6305263157895 13.3821052631579  L 11.0915789473684 13.3747368421052  L 19 5.5189473684211  L 19 18.9473684210525  C 18.9473684210526 19.5287207892957  18.4760892103482 20  17.8947368421052 20  L 1.0526315789474 20  C 0.471279210704438 20  0 19.5287207892957  0 18.9473684210525  L 0 2.1052631578948  C 0 1.52391078965184  0.471279210704438 1.05263157894751  1.0526315789474 1  Z M 8.73052631578946 9.78315789473686  L 18.4052631578948 0.105263157894797  L 19.8947368421052 1.59578947368414  L 10.218947368421 11.2715789473684  L 8.73263157894741 11.2747368421053  L 8.73052631578946 9.78315789473686  Z " fill-rule="nonzero" fill="#333333" stroke="none" transform="matrix(1 0 0 1 700 953 )" />
  </g>
</svg>