<?xml version="1.0" encoding="utf-8"?>
<svg version="1.1" xmlns:xlink="http://www.w3.org/1999/xlink" width="16px" height="16px" xmlns="http://www.w3.org/2000/svg">
  <g>
    <path d="M 10.84375 3.09375  C 9.97569444444446 2.58680555555554  9.02777777777783 2.33333333333337  8 2.33333333333337  C 6.97222222222217 2.33333333333337  6.02430555555554 2.58680555555554  5.15625 3.09375  C 4.28819444444446 3.60069444444446  3.60069444444446 4.28819444444446  3.09375 5.15625  C 2.58680555555554 6.02430555555554  2.33333333333337 6.97222222222217  2.33333333333337 8  C 2.33333333333337 9.02777777777783  2.58680555555554 9.97569444444446  3.09375 10.84375  C 3.60069444444446 11.7118055555555  4.28819444444446 12.3993055555555  5.15625 12.90625  C 6.02430555555554 13.4131944444445  6.97222222222217 13.6666666666666  8 13.6666666666666  C 9.02777777777783 13.6666666666666  9.97569444444446 13.4131944444445  10.84375 12.90625  C 11.7118055555555 12.3993055555555  12.3993055555555 11.7118055555555  12.90625 10.84375  C 13.4131944444445 9.97569444444446  13.6666666666666 9.02777777777783  13.6666666666666 8  C 13.6666666666666 6.97222222222217  13.4131944444445 6.02430555555554  12.90625 5.15625  C 12.3993055555555 4.28819444444446  11.7118055555555 3.60069444444446  10.84375 3.09375  Z M 14.9270833333334 3.984375  C 15.6423611111111 5.21006944444446  16 6.54861111111109  16 8  C 16 9.45138888888891  15.6423611111111 10.7899305555555  14.9270833333334 12.015625  C 14.2118055555555 13.2413194444445  13.2413194444445 14.2118055555555  12.015625 14.9270833333334  C 10.7899305555555 15.6423611111111  9.45138888888891 16  8 16  C 6.54861111111109 16  5.21006944444446 15.6423611111111  3.984375 14.9270833333334  C 2.75868055555554 14.2118055555555  1.78819444444446 13.2413194444445  1.07291666666663 12.015625  C 0.357638888888914 10.7899305555555  0 9.45138888888891  0 8  C 0 6.54861111111109  0.357638888888914 5.21006944444446  1.07291666666663 3.984375  C 1.78819444444446 2.75868055555554  2.75868055555554 1.78819444444446  3.984375 1.07291666666663  C 5.21006944444446 0.357638888888914  6.54861111111109 0  8 0  C 9.45138888888891 0  10.7899305555555 0.357638888888914  12.015625 1.07291666666663  C 13.2413194444445 1.78819444444446  14.2118055555555 2.75868055555554  14.9270833333334 3.984375  Z " fill-rule="nonzero" fill="#e4e4e4" stroke="none" />
  </g>
</svg>