<?xml version="1.0" encoding="utf-8"?>
<svg version="1.1" xmlns:xlink="http://www.w3.org/1999/xlink" width="45px" height="45px" xmlns="http://www.w3.org/2000/svg">
  <g transform="matrix(1 0 0 1 -38 -22 )">
    <path d="M 60.5 22  C 73.1 22  83 31.9  83 44.5  C 83 57.1  73.1 67  60.5 67  C 47.9 67  38 57.1  38 44.5  C 38 31.9  47.9 22  60.5 22  Z " fill-rule="nonzero" fill="#f2f2f2" stroke="none" />
    <path d="M 60.5 22.5  C 72.82 22.5  82.5 32.18  82.5 44.5  C 82.5 56.82  72.82 66.5  60.5 66.5  C 48.18 66.5  38.5 56.82  38.5 44.5  C 38.5 32.18  48.18 22.5  60.5 22.5  Z " stroke-width="1" stroke="#e4e4e4" fill="none" />
  </g>
</svg>