<?xml version="1.0" encoding="utf-8"?>
<svg version="1.1" xmlns:xlink="http://www.w3.org/1999/xlink" width="22px" height="22px" xmlns="http://www.w3.org/2000/svg">
  <g transform="matrix(1 0 0 1 -617 -3348 )">
    <path d="M 20.8999999999999 19.8000003095199  L 12.1000000000001 19.8000003095199  L 12.1000000000001 22  L 9.89999999999995 22  L 9.89999999999995 19.8000003095199  L 1.10000000000005 19.8000003095199  C 0.49248677518608 19.8000003095199  0 19.3075136036222  0 18.7000004642799  L 0 1.10000294043937  C 0 0.492489801097065  0.49248677518608 0  1.10000000000005 0  L 7.69999999999999 0  C 8.96306664245168 -0.00149547063222144  10.1655532667131 0.541226749428347  11 1.48940288565433  C 11.8344467332869 0.541226749428347  13.0369333575483 -0.00149547063222144  14.3 0  L 20.8999999999999 0  C 21.5075132248139 0  22 0.492489801097065  22 1.10000294043937  L 22 18.7000004642799  C 22 19.3075136036222  21.5075132248139 19.8000003095199  20.8999999999999 19.8000003095199  Z M 12 17.6000006190399  L 19.8 17.6000006190399  L 19.8 2.20000278567943  L 14.3 2.20000278567943  C 13.0849735503722 2.20000278567943  12.1000000000001 3.18497619747484  12 4.40000247615944  L 12 17.6000006190399  Z M 2.19999999999999 17.6000006190399  L 10 17.6000006190399  L 10 4.40000247615944  C 9.89999999999995 3.18497619747484  8.91502644962779 2.20000278567943  7.69999999999999 2.20000278567943  L 2.19999999999999 2.20000278567943  L 2.19999999999999 17.6000006190399  Z " fill-rule="nonzero" fill="#333333" stroke="none" transform="matrix(1 0 0 1 617 3348 )" />
  </g>
</svg>