<?xml version="1.0" encoding="utf-8"?>
<svg version="1.1" xmlns:xlink="http://www.w3.org/1999/xlink" width="20px" height="22px" xmlns="http://www.w3.org/2000/svg">
  <g transform="matrix(1 0 0 1 -778 -3348 )">
    <path d="M 19.8000000000001 20.9  C 19.8000000000001 21.5075132248139  19.3075132248139 22  18.7 22  L 1.10000000000002 22  C 0.49248677518608 22  0 21.5075132248139  0 20.9  L 0 1.10000000000002  C 0 0.49248677518608  0.49248677518608 0  1.10000000000002 0  L 18.7 0  C 19.3075132248139 0  19.8000000000001 0.49248677518608  19.8000000000001 1.10000000000002  L 19.8000000000001 20.9  Z M 2.19999999999999 19.8  L 17.6000000000001 19.8  L 17.6000000000001 2.19999999999999  L 2.19999999999999 2.19999999999999  L 2.19999999999999 19.8  Z M 4.39999999999998 8.80000000000001  L 4.39999999999998 4.39999999999998  L 8.80000000000001 4.39999999999998  L 8.80000000000001 8.80000000000001  L 4.39999999999998 8.80000000000001  Z M 4.39999999999998 13  L 4.39999999999998 11  L 15.4000000000001 11  L 15.4000000000001 13  L 4.39999999999998 13  Z M 4.39999999999998 17.6  L 4.39999999999998 15  L 15.4000000000001 15  L 15.4000000000001 17.6  L 4.39999999999998 17.6  Z M 11 7.69999999999999  L 11 5.5  L 15.4000000000001 5.5  L 15.4000000000001 7.69999999999999  L 11 7.69999999999999  Z " fill-rule="nonzero" fill="#333333" stroke="none" transform="matrix(1 0 0 1 778 3348 )" />
  </g>
</svg>