<?xml version="1.0" encoding="utf-8"?>
<svg version="1.1" xmlns:xlink="http://www.w3.org/1999/xlink" width="22px" height="24px" xmlns="http://www.w3.org/2000/svg">
  <g transform="matrix(1 0 0 1 -204 -133 )">
    <path d="M 21.6 22.8  C 21.6 23.462741699797  21.0627416997969 24  20.4 24  L 4.19999999999999 24  C 1.88040405071069 24  0 22.1195959492893  0 19.8  L 0 3.59999999999999  C 0 1.61177490060916  1.61177490060913 0  3.59999999999999 0  L 20.4 0  C 21.0627416997969 0  21.6 0.53725830020305  21.6 1.2  L 21.6 22.8  Z M 4.19999999999999 21.6  L 19.2 21.6  L 19.2 18  L 4.19999999999999 18  C 3.20588745030457 18  2.40000000000001 18.8058874503046  2.40000000000001 19.8  C 2.40000000000001 20.7941125496954  3.20588745030457 21.6  4.19999999999999 21.6  Z M 16.8 2.40000000000001  L 8.40000000000001 2.40000000000001  L 8.40000000000001 12  L 12.6 9.59999999999999  L 16.8 12  L 16.8 2.40000000000001  Z " fill-rule="nonzero" fill="#ffffff" stroke="none" transform="matrix(1 0 0 1 204 133 )" />
  </g>
</svg>