<?xml version="1.0" encoding="utf-8"?>
<svg version="1.1" xmlns:xlink="http://www.w3.org/1999/xlink" width="6px" height="10px" xmlns="http://www.w3.org/2000/svg">
  <g transform="matrix(1 0 0 1 -377 -375 )">
    <path d="M 5.61610211094745 4.69905327897169  C 5.68155784650628 4.76486635010576  5.71428571428567 4.84055138190996  5.71428571428567 4.92610837438423  C 5.71428571428567 5.01166536685855  5.68155784650628 5.08735039866269  5.61610211094745 5.15316346979671  L 1.04074619538534 9.75349714206732  C 0.97529045982651 9.81931021320139  0.900016363933901 9.85221674876846  0.814923907707453 9.85221674876846  C 0.729831451480891 9.85221674876846  0.654557355588281 9.81931021320139  0.58910162002951 9.75349714206732  L 0.0981836033382137 9.25989910856191  C 0.0327278677793856 9.19408603742784  0 9.1184010056237  0 9.03284401314943  C 0 8.94728702067516  0.0327278677793856 8.87160198887096  0.0981836033382137 8.80578891773695  L 3.95679921453115 4.92610837438423  L 0.0981836033382137 1.04642783103156  C 0.0327278677793856 0.980614759897492  0 0.904929728093293  0 0.819372735619027  C 0 0.73381574314476  0.0327278677793856 0.658130711340618  0.0981836033382137 0.592317640206488  L 0.58910162002951 0.0987196067011382  C 0.654557355588281 0.0329065355670082  0.729831451480891 0  0.814923907707453 0  C 0.900016363933901 0  0.97529045982651 0.0329065355670082  1.04074619538534 0.0987196067011382  L 5.61610211094745 4.69905327897169  Z " fill-rule="nonzero" fill="#999999" stroke="none" transform="matrix(1 0 0 1 377 375 )" />
  </g>
</svg>