<?xml version="1.0" encoding="utf-8"?>
<svg version="1.1" xmlns:xlink="http://www.w3.org/1999/xlink" width="20px" height="18px" xmlns="http://www.w3.org/2000/svg">
  <g transform="matrix(1 0 0 1 -260 -762 )">
    <path d="M 10.4910714285714 16.9984375  C 10.3571428571428 17.1328125  10.1934523809524 17.2  10 17.2  C 9.80654761904759 17.2  9.64285714285717 17.1328125  9.50892857142856 16.9984375  L 2.54464285714283 10.2572916666667  C 2.47023809523807 10.1975694444444  2.36793154761904 10.1005208333333  2.23772321428572 9.96614583333333  C 2.10751488095241 9.83177083333332  1.90104166666669 9.58728298611111  1.61830357142856 9.23268229166666  C 1.33556547619048 8.87808159722222  1.08258928571428 8.51414930555555  0.859375 8.14088541666666  C 0.636160714285722 7.76762152777778  0.437127976190482 7.31597222222221  0.262276785714278 6.78593749999999  C 0.0874255952380736 6.25590277777778  0 5.7407986111111  0 5.24062499999999  C 0 3.59826388888888  0.472470238095241 2.31423611111111  1.41741071428572 1.38854166666667  C 2.3623511904762 0.462847222222223  3.66815476190476 0  5.33482142857144 0  C 5.79613095238096 0  6.26674107142856 0.0802517361111086  6.74665178571428 0.24075520833334  C 7.2265625 0.401258680555557  7.67299107142856 0.617751736111103  8.0859375 0.890234375000006  C 8.49888392857144 1.16271701388889  8.85416666666669 1.41840277777777  9.15178571428572 1.65729166666667  C 9.44940476190476 1.89618055555556  9.73214285714283 2.15000000000001  10 2.41875  C 10.2678571428572 2.15000000000001  10.5505952380952 1.89618055555556  10.8482142857143 1.65729166666667  C 11.1458333333333 1.41840277777777  11.5011160714286 1.16271701388889  11.9140625 0.890234375000006  C 12.3270089285714 0.617751736111103  12.7734375 0.401258680555557  13.2533482142857 0.24075520833334  C 13.7332589285714 0.0802517361111086  14.203869047619 0  14.6651785714286 0  C 16.3318452380952 0  17.6376488095238 0.462847222222223  18.5825892857143 1.38854166666667  C 19.5275297619048 2.31423611111111  20 3.59826388888888  20 5.24062499999999  C 20 6.89045138888888  19.1480654761905 8.57013888888888  17.4441964285714 10.2796875  L 10.4910714285714 16.9984375  Z " fill-rule="nonzero" fill="#000000" stroke="none" transform="matrix(1 0 0 1 260 762 )" />
  </g>
</svg>