<?xml version="1.0" encoding="utf-8"?>
<svg version="1.1" xmlns:xlink="http://www.w3.org/1999/xlink" width="20px" height="20px" xmlns="http://www.w3.org/2000/svg">
  <g transform="matrix(1 0 0 1 -110 -760 )">
    <path d="M 2.96249999999998 15.7687500000001  C 3.12083333333334 15.6145833333334  3.19999999999999 15.4250000000001  3.19999999999999 15.2  C 3.19999999999999 14.9833333333333  3.12083333333334 14.7958333333333  2.96249999999998 14.6375  C 2.80416666666667 14.4791666666667  2.61666666666667 14.4000000000001  2.39999999999998 14.4000000000001  C 2.17500000000001 14.4000000000001  1.98541666666665 14.4791666666667  1.83125000000001 14.6375  C 1.67708333333331 14.7958333333333  1.60000000000002 14.9833333333333  1.60000000000002 15.2  C 1.60000000000002 15.4250000000001  1.67708333333331 15.6145833333334  1.83125000000001 15.7687500000001  C 1.98541666666665 15.9229166666667  2.17500000000001 16  2.39999999999998 16  C 2.61666666666667 16  2.80416666666667 15.9229166666667  2.96249999999998 15.7687500000001  Z M 4.96249999999998 8.23750000000007  C 5.12083333333334 8.39583333333337  5.19999999999999 8.58333333333337  5.19999999999999 8.80000000000007  L 5.19999999999999 16.8000000000001  C 5.19999999999999 17.0166666666667  5.12083333333334 17.2041666666667  4.96249999999998 17.3625000000001  C 4.80416666666667 17.5208333333334  4.61666666666667 17.6  4.39999999999998 17.6  L 0.800000000000011 17.6  C 0.583333333333314 17.6  0.395833333333314 17.5208333333334  0.237500000000011 17.3625000000001  C 0.0791666666666515 17.2041666666667  0 17.0166666666667  0 16.8000000000001  L 0 8.80000000000007  C 0 8.58333333333337  0.0791666666666515 8.39583333333337  0.237500000000011 8.23750000000007  C 0.395833333333314 8.07916666666665  0.583333333333314 8  0.800000000000011 8  L 4.39999999999998 8  C 4.61666666666667 8  4.80416666666667 8.07916666666665  4.96249999999998 8.23750000000007  Z M 19.2875 7.11250000000007  C 19.7625 7.58749999999998  20 8.14999999999998  20 8.80000000000007  C 20 9.51666666666665  19.7708333333333 10.1375  19.3125 10.6625  C 19.4375 11.0291666666667  19.5 11.3458333333333  19.5 11.6125000000001  C 19.525 12.2458333333334  19.3458333333334 12.8166666666667  18.9625 13.325  C 19.1041666666667 13.7916666666667  19.1041666666667 14.2791666666667  18.9625 14.7875  C 18.8375 15.2625  18.6125 15.6541666666667  18.2875 15.9625000000001  C 18.3625 16.8958333333334  18.1583333333334 17.6500000000001  17.675 18.225  C 17.1416666666667 18.8583333333333  16.3208333333333 19.1833333333334  15.2125 19.2  L 14.7625 19.2  L 13.8125 19.2  L 13.6 19.2  C 13.05 19.2  12.45 19.1354166666667  11.8 19.00625  C 11.15 18.8770833333334  10.64375 18.75625  10.28125 18.6437500000001  C 9.91874999999999 18.53125  9.41666666666669 18.3666666666667  8.77499999999998 18.1500000000001  C 7.75 17.7916666666667  7.09166666666664 17.6083333333333  6.80000000000001 17.6  C 6.58333333333331 17.5916666666667  6.39583333333331 17.5104166666667  6.23750000000001 17.35625  C 6.07916666666665 17.2020833333333  6 17.0166666666667  6 16.8000000000001  L 6 8.78750000000002  C 6 8.57916666666665  6.07499999999999 8.39791666666667  6.22500000000002 8.24374999999998  C 6.375 8.08958333333339  6.55416666666667 8.00416666666672  6.76249999999999 7.98750000000007  C 6.96249999999998 7.9708333333333  7.27916666666664 7.72500000000002  7.71249999999998 7.25  C 8.14583333333331 6.77499999999998  8.56666666666666 6.27083333333337  8.97500000000002 5.73750000000007  C 9.54166666666669 5.01250000000005  9.96249999999998 4.51250000000005  10.2375 4.23749999999995  C 10.3875 4.08749999999998  10.5166666666667 3.88750000000005  10.625 3.63750000000005  C 10.7333333333333 3.38750000000005  10.80625 3.1854166666667  10.84375 3.03125  C 10.88125 2.8770833333333  10.9375 2.625  11.0125 2.27499999999998  C 11.0708333333333 1.95000000000005  11.1229166666667 1.69583333333333  11.16875 1.51250000000005  C 11.2145833333333 1.32916666666665  11.2958333333333 1.11249999999995  11.4125 0.862499999999955  C 11.5291666666667 0.612499999999955  11.6708333333333 0.404166666666697  11.8375 0.237499999999955  C 11.9958333333333 0.0791666666666515  12.1833333333333 0  12.4 0  C 12.7833333333334 0  13.1270833333334 0.0437500000000455  13.43125 0.131250000000023  C 13.7354166666667 0.21875  13.9854166666667 0.327083333333348  14.18125 0.456249999999955  C 14.3770833333334 0.585416666666674  14.54375 0.75416666666672  14.68125 0.962499999999977  C 14.81875 1.17083333333335  14.91875 1.35833333333335  14.98125 1.52499999999998  C 15.04375 1.69166666666672  15.09375 1.89999999999998  15.13125 2.14999999999998  C 15.16875 2.39999999999998  15.1895833333334 2.58749999999998  15.19375 2.71249999999998  C 15.1979166666667 2.83749999999998  15.2 3  15.2 3.20000000000005  C 15.2 3.51666666666665  15.1604166666667 3.83333333333337  15.08125 4.14999999999998  C 15.0020833333334 4.4666666666667  14.9229166666667 4.7166666666667  14.84375 4.89999999999998  C 14.7645833333333 5.08333333333337  14.65 5.31666666666672  14.5 5.60000000000002  C 14.475 5.64999999999998  14.4333333333333 5.72500000000002  14.375 5.82500000000005  C 14.3166666666667 5.92500000000007  14.2708333333333 6.01666666666665  14.2375 6.10000000000002  C 14.2041666666667 6.18333333333339  14.1708333333333 6.2833333333333  14.1375 6.39999999999998  L 17.6 6.39999999999998  C 18.25 6.39999999999998  18.8125 6.63750000000005  19.2875 7.11250000000007  Z " fill-rule="nonzero" fill="#000000" stroke="none" transform="matrix(1 0 0 1 110 760 )" />
  </g>
</svg>