<?xml version="1.0" encoding="utf-8"?>
<svg version="1.1" xmlns:xlink="http://www.w3.org/1999/xlink" width="20px" height="20px" xmlns="http://www.w3.org/2000/svg">
  <g transform="matrix(1 0 0 1 -110 -760 )">
    <path d="M 3.04185267857144 16.2610826673327  C 3.20442708333337 16.1127934565435  3.28571428571428 15.9371878121879  3.28571428571428 15.7342657342658  C 3.28571428571428 15.5313436563437  3.20442708333337 15.355738011988  3.04185267857144 15.2074488011989  C 2.87927827380958 15.0591595904095  2.68675595238102 14.985014985015  2.46428571428572 14.985014985015  C 2.24181547619048 14.985014985015  2.04929315476193 15.0591595904095  1.88671875000006 15.2074488011989  C 1.72414434523813 15.355738011988  1.64285714285717 15.5313436563437  1.64285714285717 15.7342657342658  C 1.64285714285717 15.9371878121879  1.72414434523813 16.1127934565435  1.88671875000006 16.2610826673327  C 2.04929315476193 16.409371878122  2.24181547619048 16.4835164835164  2.46428571428572 16.4835164835164  C 2.68675595238102 16.4835164835164  2.87927827380958 16.409371878122  3.04185267857144 16.2610826673327  Z M 17.7954799107143 9.93927947052941  C 17.9794456845239 9.58026348651345  18.0714285714286 9.26417332667324  18.0714285714286 8.99100899100904  C 18.0714285714286 8.59296953046953  17.9045758928572 8.24370941558448  17.5708705357143 7.94322864635376  C 17.2371651785715 7.64274787712282  16.8563988095239 7.49250749250757  16.4285714285714 7.49250749250757  L 11.9107142857143 7.49250749250757  C 11.9107142857143 7.03983516483515  12.1160714285714 6.41741071428578  12.5267857142857 5.62523414085911  C 12.9375000000001 4.83305756743266  13.1428571428572 4.20673076923083  13.1428571428572 3.74625374625373  C 13.1428571428572 2.98139360639368  13.0059523809524 2.41555319680322  12.7321428571429 2.04873251748256  C 12.4583333333334 1.68191183816191  11.9107142857143 1.49850149850147  11.0892857142858 1.49850149850147  C 10.8668154761905 1.70142357642351  10.7042410714286 2.03312312687308  10.6015625 2.49360014985018  C 10.4988839285715 2.95407717282717  10.368396577381 3.44382180319678  10.2101004464286 3.96283404095902  C 10.0518043154762 4.48184627872126  9.79724702380958 4.90915334665328  9.44642857142861 5.24475524475531  C 9.25818452380952 5.4242632367633  8.9287574404762 5.77937687312681  8.45814732142856 6.31009615384619  C 8.42392113095235 6.34911963036961  8.32552083333331 6.46619005994  8.16294642857139 6.66130744255736  C 8.00037202380958 6.85642482517494  7.86560639880952 7.01642107892121  7.75864955357144 7.14129620379629  C 7.65169270833331 7.26617132867136  7.50409226190476 7.43202110389609  7.31584821428572 7.63884552947059  C 7.12760416666663 7.84566995504497  6.95647321428572 8.01737325174815  6.80245535714283 8.15395541958037  C 6.64843750000006 8.29053758741247  6.48372395833331 8.42907092907092  6.30831473214283 8.56955544455536  C 6.13290550595235 8.71003996004004  5.96177455357139 8.81540334665328  5.79492187500006 8.88564560439556  C 5.62806919642861 8.95588786213796  5.47619047619042 8.99100899100904  5.33928571428572 8.99100899100904  L 4.9285714285715 8.99100899100904  L 4.9285714285715 16.4835164835164  L 5.33928571428572 16.4835164835164  C 5.45052083333337 16.4835164835164  5.58528645833331 16.4952235264735  5.74358258928572 16.5186376123876  C 5.90187872023813 16.5420516983017  6.04306175595241 16.5674169580419  6.16713169642861 16.5947333916084  C 6.29120163690476 16.6220498251749  6.45377604166663 16.6649756493507  6.65485491071428 16.7235108641358  C 6.85593377976187 16.782046078921  7.00567336309524 16.8269230769231  7.10407366071422 16.8581418581418  C 7.20247395833331 16.8893606393606  7.35435267857139 16.938139985015  7.55970982142856 17.004479895105  C 7.76506696428572 17.0708198051949  7.88913690476193 17.1117944555446  7.93191964285711 17.1274038461539  C 9.7373511904762 17.6971466033966  11.2005208333333 17.982017982018  12.3214285714286 17.982017982018  L 13.8744419642857 17.982017982018  C 15.5172991071429 17.982017982018  16.3387276785714 17.330325924076  16.3387276785714 16.0269418081917  C 16.3387276785714 15.8240197302696  16.3173363095238 15.6054882617383  16.2745535714286 15.3713474025974  C 16.5312499999999 15.2464722777222  16.7344680059525 15.0415990259741  16.8842075892857 14.7567276473527  C 17.0339471726191 14.4718562687314  17.1088169642857 14.1850337162837  17.1088169642857 13.89625999001  C 17.1088169642857 13.6074862637363  17.0318080357143 13.3382242757244  16.8777901785714 13.0884740259741  C 17.3312872023809 12.6982392607393  17.5580357142857 12.2338598901099  17.5580357142857 11.6953359140859  C 17.5580357142857 11.5002185314685  17.5152529761905 11.2836382367633  17.4296875000001 11.0455950299701  C 17.3441220238095 10.8075518231768  17.2371651785715 10.6221903096904  17.1088169642857 10.4895104895105  C 17.3826264880953 10.4817057942058  17.6115141369048 10.2982954545455  17.7954799107143 9.93927947052941  Z M 18.7388392857143 6.88374125874134  C 19.3891369047619 7.47689810189809  19.7142857142857 8.17541833166831  19.7142857142857 8.9793019480519  C 19.7142857142857 9.67391983016978  19.5046502976191 10.3100024975025  19.0853794642857 10.8875499500499  C 19.1623883928572 11.145104895105  19.2008928571429 11.4143668831168  19.2008928571429 11.6953359140859  C 19.2008928571429 12.2962974525475  19.038318452381 12.8582355144855  18.7131696428571 13.3811500999001  C 18.7388392857143 13.5450487012987  18.7516741071429 13.7128496503498  18.7516741071429 13.8845529470531  C 18.7516741071429 14.6728271728272  18.4949776785714 15.3674450549449  17.9815848214286 15.9684065934067  C 17.9901413690476 17.0532592407593  17.6264880952381 17.9098245504495  16.890625 18.5381025224774  C 16.1547619047619 19.1663804945056  15.1835937499999 19.4805194805195  13.9771205357143 19.4805194805195  L 13.5150669642858 19.4805194805195  L 12.3214285714286 19.4805194805195  C 11.5 19.4805194805195  10.6892671130952 19.3927166583417  9.88922991071428 19.2171110139859  C 9.08919270833337 19.0415053696304  8.16294642857139 18.7859015984017  7.11049107142856 18.4502997002999  C 6.11793154761909 18.1381118881118  5.52752976190482 17.982017982018  5.33928571428572 17.982017982018  L 1.64285714285717 17.982017982018  C 1.18936011904759 17.982017982018  0.802176339285722 17.8356799450551  0.481305803571445 17.5430038711288  C 0.160435267857167 17.2503277972028  0 16.8971653346654  0 16.4835164835164  L 0 8.99100899100904  C 0 8.57736013986005  0.160435267857167 8.22419767732265  0.481305803571445 7.9315216033965  C 0.802176339285722 7.63884552947059  1.18936011904759 7.49250749250757  1.64285714285717 7.49250749250757  L 5.15959821428572 7.49250749250757  C 5.46763392857144 7.3051948051949  6.05375744047615 6.70033091908101  6.91796875 5.67791583416579  C 7.41424851190476 5.09256368631372  7.87202380952385 4.59306318681308  8.29129464285717 4.17941433566443  C 8.49665178571433 3.98429695304685  8.64853050595235 3.65064622877128  8.74693080357139 3.17846216283726  C 8.84533110119042 2.70627809690313  8.97581845238102 2.21263111888106  9.13839285714283 1.69752122877128  C 9.30096726190476 1.18241133866127  9.56622023809524 0.760957792207819  9.93415178571433 0.433160589410591  C 10.2678571428572 0.144386863136788  10.6529017857143 0  11.0892857142858 0  C 11.8080357142857 0  12.4540550595238 0.126826298701303  13.02734375 0.380478896103909  C 13.6006324404762 0.634131493506516  14.0370163690476 1.03021978021968  14.3364955357143 1.56874375624363  C 14.6359747023809 2.10726773226781  14.7857142857143 2.83310439560444  14.7857142857143 3.74625374625373  C 14.7857142857143 4.47209040959046  14.5803571428572 5.22134115884103  14.1696428571429 5.99400599400599  L 16.4285714285714 5.99400599400599  C 17.3184523809524 5.99400599400599  18.0885416666667 6.29058441558448  18.7388392857143 6.88374125874134  Z " fill-rule="nonzero" fill="#333333" stroke="none" transform="matrix(1 0 0 1 110 760 )" />
  </g>
</svg>