<?xml version="1.0" encoding="utf-8"?>
<svg version="1.1" xmlns:xlink="http://www.w3.org/1999/xlink" width="18px" height="18px" xmlns="http://www.w3.org/2000/svg">
  <g transform="matrix(1 0 0 1 -144 -133 )">
    <path d="M 0 7.71428571428572  C 0 3.45600000000002  3.45600000000002 0  7.71428571428567 0  C 11.9725714285714 0  15.4285714285714 3.45600000000002  15.4285714285714 7.71428571428572  C 15.4285714285714 11.9725714285714  11.9725714285714 15.4285714285714  7.71428571428567 15.4285714285714  C 3.45600000000002 15.4285714285714  0 11.9725714285714  0 7.71428571428572  Z M 1.71428571428572 7.71428571428572  C 1.71428571428572 11.0288571428572  4.3988571428572 13.7142857142857  7.71428571428567 13.7142857142857  C 11.0288571428571 13.7142857142857  13.7142857142858 11.0288571428572  13.7142857142858 7.71428571428572  C 13.7142857142858 4.39885714285714  11.0288571428571 1.71428571428572  7.71428571428567 1.71428571428572  C 4.3988571428572 1.71428571428572  1.71428571428572 4.39885714285714  1.71428571428572 7.71428571428572  Z M 13.7751428571429 14.9871428571429  L 14.9871428571429 13.7751428571429  L 17.412 16.1991428571428  L 16.1991428571429 17.412  L 13.7751428571429 14.9871428571429  Z " fill-rule="nonzero" fill="#999999" stroke="none" transform="matrix(1 0 0 1 144 133 )" />
  </g>
</svg>