<?xml version="1.0" encoding="utf-8"?>
<svg version="1.1" xmlns:xlink="http://www.w3.org/1999/xlink" width="41px" height="40px" xmlns="http://www.w3.org/2000/svg">
  <g transform="matrix(1 0 0 1 -327 -150 )">
    <path d="M 1.34666666666669 17.7009523809524  L 18.8571428571429 0.190476190476204  L 37.712380952381 2.8857142857143  L 40.4057142857143 21.7428571428571  L 22.8971428571429 39.2514285714286  C 22.1533336162175 39.9950132158721  20.9476187647349 39.9950132158721  20.2038095238096 39.2514285714286  L 1.34666666666669 20.3942857142857  C 0.603082022223134 19.6504764733604  0.603082022223134 18.4447616218777  1.34666666666669 17.7009523809524  Z M 23.1275208345994 13.66  C 23.1275208345994 14.6706079425697  23.5290754829266 15.639804318875  24.2438095238095 16.3542857142857  C 24.9582134853636 17.0684371470446  25.927001634741 17.4696220225435  26.9371428571428 17.4696220225435  C 29.0411390028132 17.4696220225435  30.7467648796863 15.7639961456703  30.7467648796863 13.66  C 30.7467648796863 12.6493920574303  30.3452102313591 11.680195681125  29.6304761904762 10.9657142857143  C 28.9160722289222 10.2515628529554  27.9472840795447 9.8503779774565  26.9371428571428 9.8503779774565  C 24.8331467114725 9.8503779774565  23.1275208345994 11.5560038543297  23.1275208345994 13.66  Z " fill-rule="nonzero" fill="#ffffff" stroke="none" transform="matrix(1 0 0 1 327 150 )" />
  </g>
</svg>