<?xml version="1.0" encoding="utf-8"?>
<svg version="1.1" xmlns:xlink="http://www.w3.org/1999/xlink" width="40px" height="40px" xmlns="http://www.w3.org/2000/svg">
  <defs>
    <filter x="293px" y="10px" width="40px" height="40px" filterUnits="userSpaceOnUse" id="filter1338">
      <feOffset dx="0" dy="4" in="SourceAlpha" result="shadowOffsetInner" />
      <feGaussianBlur stdDeviation="4" in="shadowOffsetInner" result="shadowGaussian" />
      <feComposite in2="shadowGaussian" operator="atop" in="SourceAlpha" result="shadowComposite" />
      <feColorMatrix type="matrix" values="0 0 0 0 0  0 0 0 0 0.431372549019608  0 0 0 0 0.945098039215686  0 0 0 0.23921568627451 0  " in="shadowComposite" />
    </filter>
    <g id="widget1339">
      <path d="M 24 12  C 24 5.37  18.63 0  12 0  C 5.37 0  0 5.37  0 12  C 0 18.63  5.37 24  12 24  C 18.63 24  24 18.63  24 12  Z M 8.39999999999998 7.2  C 8.39999999999998 5.21400000000001  10.014 3.60000000000002  12 3.60000000000002  C 13.986 3.60000000000002  15.6 5.21400000000001  15.6 7.2  C 15.6 9.19200000000001  13.986 10.8  12 10.8  C 10.014 10.8  8.39999999999998 9.19200000000001  8.39999999999998 7.2  Z M 19.2 16.776  C 17.646 19.104  15.006 20.64  12 20.64  C 8.99400000000003 20.64  6.35400000000004 19.104  4.79999999999995 16.776  C 4.83000000000004 14.394  9.60599999999999 13.08  12 13.08  C 14.394 13.08  19.164 14.394  19.2 16.776  Z " fill-rule="nonzero" fill="#006ef1" stroke="none" fill-opacity="0.8" transform="matrix(1 0 0 1 301 14 )" />
    </g>
  </defs>
  <g transform="matrix(1 0 0 1 -293 -10 )">
    <use xlink:href="#widget1339" filter="url(#filter1338)" />
    <use xlink:href="#widget1339" />
  </g>
</svg>