<?xml version="1.0" encoding="utf-8"?>
<svg version="1.1" xmlns:xlink="http://www.w3.org/1999/xlink" width="14px" height="15px" xmlns="http://www.w3.org/2000/svg">
  <g transform="matrix(1 0 0 1 -145 -1501 )">
    <path d="M 3.57151442307691 11.0007957175926  C 3.78185096153845 11.2117814429012  3.88701923076923 11.4663708847736  3.88701923076923 11.7645640432097  C 3.88701923076923 12.062757201646  3.78185096153845 12.3173466435185  3.57151442307691 12.528332368827  C 3.36117788461536 12.7393180941358  3.10737179487177 12.8448109567901  2.81009615384613 12.8448109567901  C 2.5184294871795 12.8448109567901  2.26602564102564 12.7379115226336  2.05288461538464 12.524112654321  C 1.83974358974359 12.3103137860082  1.73317307692309 12.0571309156378  1.73317307692309 11.7645640432097  C 1.73317307692309 11.4663708847736  1.83834134615387 11.2117814429012  2.04867788461536 11.0007957175926  C 2.25901442307691 10.7898099922838  2.5128205128205 10.6843171296296  2.81009615384613 10.6843171296296  C 3.10737179487177 10.6843171296296  3.36117788461536 10.7898099922838  3.57151442307691 11.0007957175926  Z M 7.76141826923077 12.7393180941358  C 7.97175480769232 12.9503038194443  8.07692307692309 13.2048932613168  8.07692307692309 13.5030864197531  C 8.07692307692309 13.8012795781892  7.97175480769232 14.0558690200617  7.76141826923077 14.2668547453702  C 7.55108173076923 14.477840470679  7.29727564102563 14.5833333333333  7 14.5833333333333  C 6.70272435897436 14.5833333333333  6.44891826923077 14.477840470679  6.23858173076923 14.2668547453702  C 6.02824519230768 14.0558690200617  5.92307692307691 13.8012795781892  5.92307692307691 13.5030864197531  C 5.92307692307691 13.2048932613168  6.02824519230768 12.9503038194443  6.23858173076923 12.7393180941358  C 6.44891826923077 12.528332368827  6.70272435897436 12.4228395061727  7 12.4228395061727  C 7.29727564102563 12.4228395061727  7.55108173076923 12.528332368827  7.76141826923077 12.7393180941358  Z M 1.83834134615387 6.79796006944434  C 2.04867788461536 7.00894579475312  2.15384615384613 7.26353523662556  2.15384615384613 7.56172839506166  C 2.15384615384613 7.859921553498  2.04867788461536 8.11451099537044  1.83834134615387 8.32549672067898  C 1.62800480769232 8.53648244598753  1.37419871794873 8.64197530864203  1.07692307692309 8.64197530864203  C 0.779647435897459 8.64197530864203  0.525841346153868 8.53648244598753  0.315504807692321 8.32549672067898  C 0.105168269230774 8.11451099537044  0 7.859921553498  0 7.56172839506166  C 0 7.26353523662556  0.105168269230774 7.00894579475312  0.315504807692321 6.79796006944434  C 0.525841346153868 6.5869743441358  0.779647435897459 6.48148148148152  1.07692307692309 6.48148148148152  C 1.37419871794873 6.48148148148152  1.62800480769232 6.5869743441358  1.83834134615387 6.79796006944434  Z M 11.9513221153846 11.0007957175926  C 12.1616586538461 11.2117814429012  12.2668269230769 11.4663708847736  12.2668269230769 11.7645640432097  C 12.2668269230769 12.0571309156378  12.1602564102564 12.3103137860082  11.9471153846154 12.524112654321  C 11.7339743589744 12.7379115226336  11.4815705128205 12.8448109567901  11.1899038461539 12.8448109567901  C 10.8926282051282 12.8448109567901  10.6388221153846 12.7393180941358  10.4284855769231 12.528332368827  C 10.2181490384615 12.3173466435185  10.1129807692308 12.062757201646  10.1129807692308 11.7645640432097  C 10.1129807692308 11.4663708847736  10.2181490384615 11.2117814429012  10.4284855769231 11.0007957175926  C 10.6388221153846 10.7898099922838  10.8926282051282 10.6843171296296  11.1899038461539 10.6843171296296  C 11.4871794871795 10.6843171296296  11.7409855769231 10.7898099922838  11.9513221153846 11.0007957175926  Z M 3.76081730769232 2.40523726851848  C 4.02443910256409 2.66967271090539  4.15625 2.98755787037044  4.15625 3.35889274691363  C 4.15625 3.73022762345681  4.02443910256409 4.04811278292186  3.76081730769232 4.31254822530855  C 3.4971955128205 4.57698366769546  3.18028846153845 4.70920138888891  2.81009615384613 4.70920138888891  C 2.43990384615387 4.70920138888891  2.12299679487177 4.57698366769546  1.859375 4.31254822530855  C 1.59575320512823 4.04811278292186  1.46394230769232 3.73022762345681  1.46394230769232 3.35889274691363  C 1.46394230769232 2.98755787037044  1.59575320512823 2.66967271090539  1.859375 2.40523726851848  C 2.12299679487177 2.14080182613156  2.43990384615387 2.00858410493834  2.81009615384613 2.00858410493834  C 3.18028846153845 2.00858410493834  3.4971955128205 2.14080182613156  3.76081730769232 2.40523726851848  Z M 13.6844951923077 6.79796006944434  C 13.8948317307692 7.00894579475312  14 7.26353523662556  14 7.56172839506166  C 14 7.859921553498  13.8948317307692 8.11451099537044  13.6844951923077 8.32549672067898  C 13.4741586538461 8.53648244598753  13.2203525641025 8.64197530864203  12.9230769230769 8.64197530864203  C 12.6258012820513 8.64197530864203  12.3719951923077 8.53648244598753  12.1616586538461 8.32549672067898  C 11.9513221153846 8.11451099537044  11.8461538461539 7.859921553498  11.8461538461539 7.56172839506166  C 11.8461538461539 7.26353523662556  11.9513221153846 7.00894579475312  12.1616586538461 6.79796006944434  C 12.3719951923077 6.5869743441358  12.6258012820513 6.48148148148152  12.9230769230769 6.48148148148152  C 13.2203525641025 6.48148148148152  13.4741586538461 6.5869743441358  13.6844951923077 6.79796006944434  Z M 8.14423076923077 0.472608024691453  C 8.45833333333331 0.787680041152271  8.61538461538464 1.17026748971193  8.61538461538464 1.62037037037044  C 8.61538461538464 2.07047325102872  8.45833333333331 2.45306069958838  8.14423076923077 2.76813271604942  C 7.83012820512823 3.08320473251024  7.44871794871796 3.24074074074065  7 3.24074074074065  C 6.55128205128204 3.24074074074065  6.16987179487182 3.08320473251024  5.85576923076923 2.76813271604942  C 5.54166666666669 2.45306069958838  5.38461538461536 2.07047325102872  5.38461538461536 1.62037037037044  C 5.38461538461536 1.17026748971193  5.54166666666669 0.787680041152271  5.85576923076923 0.472608024691453  C 6.16987179487182 0.157536008230409  6.55128205128204 0  7 0  C 7.44871794871796 0  7.83012820512823 0.157536008230409  8.14423076923077 0.472608024691453  Z M 12.5192307692308 2.02546296296305  C 12.8894230769231 2.39679783950623  13.0745192307692 2.84127443415628  13.0745192307692 3.35889274691363  C 13.0745192307692 3.88213734567898  12.8894230769231 4.32802051183126  12.5192307692308 4.69654224537044  C 12.1490384615385 5.06506397890939  11.7059294871795 5.24932484567898  11.1899038461539 5.24932484567898  C 10.6682692307692 5.24932484567898  10.2237580128205 5.06506397890939  9.85637019230768 4.69654224537044  C 9.48898237179486 4.32802051183126  9.30528846153845 3.88213734567898  9.30528846153845 3.35889274691363  C 9.30528846153845 2.84127443415628  9.48898237179486 2.39679783950623  9.85637019230768 2.02546296296305  C 10.2237580128205 1.65412808641963  10.6682692307692 1.46846064814804  11.1899038461539 1.46846064814804  C 11.7059294871795 1.46846064814804  12.1490384615385 1.65412808641963  12.5192307692308 2.02546296296305  Z " fill-rule="nonzero" fill="#cccccc" stroke="none" transform="matrix(1 0 0 1 145 1501 )" />
  </g>
</svg>