<?xml version="1.0" encoding="utf-8"?>
<svg version="1.1" xmlns:xlink="http://www.w3.org/1999/xlink" width="21px" height="22px" xmlns="http://www.w3.org/2000/svg">
  <g transform="matrix(1 0 0 1 -320 -253 )">
    <path d="M 18.0771818181818 7  L 19.0909090909091 7  C 20.1452708860406 7  21 7.89543050033841  21 9  L 21 13  C 21 14.1045694996616  20.1452708860406 15  19.0909090909091 15  L 18.0771818181818 15  C 17.5957013801985 19.0000597664623  14.348476511673 21.999931569081  10.5 22  L 10.5 20  C 13.6630853853945 20  16.2272727272727 17.3137084989848  16.2272727272727 14  L 16.2272727272727 8  C 16.2272727272727 4.68629150101524  13.6630853853945 2  10.5 2  C 7.33691461460546 2  4.77272727272727 4.68629150101524  4.77272727272727 8  L 4.77272727272727 15  L 1.90909090909091 15  C 0.854729113959394 15  0 14.1045694996616  0 13  L 0 9  C 0 7.89543050033841  0.854729113959394 7  1.90909090909091 7  L 2.92281818181818 7  C 3.40477311888563 3.00036735817289  6.65186859460573 0.0010763443969708  10.5 0.0010763443969708  C 14.3481314053943 0.0010763443969708  17.5952268811144 3.00036735817289  18.0771818181818 7  Z M 10.5 16  C 9.06861935210426 16.0023041322686  7.66570662208722 15.5811467055687  6.45272727272727 14.785  L 7.46454545454546 13.089  C 8.37429975843134 13.6860346506599  9.42648607416999 14.0018165934576  10.5 14  C 11.57351392583 14.0018165934576  12.6257002415687 13.6860346506599  13.5354545454545 13.089  L 14.5472727272727 14.785  C 13.3342933779128 15.5811467055687  11.9313806478957 16.0023041322686  10.5 16  Z " fill-rule="nonzero" fill="#ffffff" stroke="none" transform="matrix(1 0 0 1 320 253 )" />
  </g>
</svg>