<?xml version="1.0" encoding="utf-8"?>
<svg version="1.1" xmlns:xlink="http://www.w3.org/1999/xlink" width="19px" height="20px" xmlns="http://www.w3.org/2000/svg">
  <g transform="matrix(1 0 0 1 -230 -340 )">
    <path d="M 19 17  C 19 18.6568542494924  17.7240115370178 20  16.15 20  L 2.85 20  C 1.27598846298224 20  0 18.6568542494924  0 17  L 0 1  C 0 0.447715250169207  0.425329487660746 0  0.95 0  L 14.25 0  C 14.7746705123393 0  15.2 0.447715250169207  15.2 1  L 15.2 8  L 19 8  L 19 17  Z M 17.1 10  L 15.2 10  L 15.2 17  C 15.2 17.5522847498308  15.6253294876607 18  16.15 18  C 16.6746705123393 18  17.1 17.5522847498308  17.1 17  L 17.1 10  Z M 8.55 4  L 2.85 4  L 2.85 10  L 8.55 10  L 8.55 4  Z M 12.35 11  L 2.85 11  L 2.85 13  L 12.35 13  L 12.35 11  Z M 12.35 14  L 2.85 14  L 2.85 16  L 12.35 16  L 12.35 14  Z M 4.75 8  L 4.75 6  L 6.65 6  L 6.65 8  L 4.75 8  Z " fill-rule="nonzero" fill="#ffffff" stroke="none" transform="matrix(1 0 0 1 230 340 )" />
  </g>
</svg>