<?xml version="1.0" encoding="utf-8"?>
<svg version="1.1" xmlns:xlink="http://www.w3.org/1999/xlink" width="40px" height="38px" xmlns="http://www.w3.org/2000/svg">
  <defs>
    <filter x="43px" y="11px" width="40px" height="38px" filterUnits="userSpaceOnUse" id="filter1418">
      <feOffset dx="0" dy="4" in="SourceAlpha" result="shadowOffsetInner" />
      <feGaussianBlur stdDeviation="4" in="shadowOffsetInner" result="shadowGaussian" />
      <feComposite in2="shadowGaussian" operator="atop" in="SourceAlpha" result="shadowComposite" />
      <feColorMatrix type="matrix" values="0 0 0 0 0  0 0 0 0 0.431372549019608  0 0 0 0 0.945098039215686  0 0 0 0.23921568627451 0  " in="shadowComposite" />
    </filter>
    <g id="widget1419">
      <path d="M 20.5199999999999 10.8  L 20.5199999999999 20.52  C 20.5199999999999 21.1164675298173  20.0364675298172 21.6  19.4399999999999 21.6  L 4.32000000000005 21.6  C 3.72353247018276 21.6  3.24000000000012 21.1164675298173  3.24000000000012 20.52  L 3.24000000000012 10.8  L 0 10.8  L 11.1531600000001 0.660959999999996  C 11.5652000192157 0.28604517293217  12.1947999807844 0.28604517293217  12.60684 0.660959999999996  L 23.76 10.8  L 20.5199999999999 10.8  Z M 12.96 12.96  L 10.8 12.96  L 10.8 19.44  L 12.96 19.44  L 12.96 12.96  Z " fill-rule="nonzero" fill="#2f78ff" stroke="none" transform="matrix(1 0 0 1 51 15 )" />
    </g>
  </defs>
  <g transform="matrix(1 0 0 1 -43 -11 )">
    <use xlink:href="#widget1419" filter="url(#filter1418)" />
    <use xlink:href="#widget1419" />
  </g>
</svg>