<?xml version="1.0" encoding="utf-8"?>
<svg version="1.1" xmlns:xlink="http://www.w3.org/1999/xlink" width="20px" height="20px" xmlns="http://www.w3.org/2000/svg">
  <g transform="matrix(1 0 0 1 -103 -261 )">
    <path d="M 20 17  C 20 18.6568542494924  18.6568542494924 20  17 20  L 3 20  C 1.34314575050762 20  0 18.6568542494924  0 17  L 0 1  C 0 0.447715250169207  0.447715250169207 0  1 0  L 15 0  C 15.5522847498308 0  16 0.447715250169207  16 1  L 16 8  L 20 8  L 20 17  Z M 18 10  L 16 10  L 16 17  C 16 17.5522847498308  16.4477152501692 18  17 18  C 17.5522847498308 18  18 17.5522847498308  18 17  L 18 10  Z M 9 4  L 3 4  L 3 10  L 9 10  L 9 4  Z M 13 11  L 3 11  L 3 13  L 13 13  L 13 11  Z M 13 14  L 3 14  L 3 16  L 13 16  L 13 14  Z M 5 8  L 5 6  L 7 6  L 7 8  L 5 8  Z " fill-rule="nonzero" fill="#ffffff" stroke="none" transform="matrix(1 0 0 1 103 261 )" />
  </g>
</svg>