<?xml version="1.0" encoding="utf-8"?>
<svg version="1.1" xmlns:xlink="http://www.w3.org/1999/xlink" width="6px" height="11px" xmlns="http://www.w3.org/2000/svg">
  <g transform="matrix(1 0 0 1 -349 -449 )">
    <path d="M 5.89690721649481 4.93400594292029  C 5.96563573883168 5.00310966761117  6 5.08257895100542  6 5.17241379310349  C 6 5.26224863520144  5.96563573883168 5.3417179185958  5.89690721649481 5.41082164328657  L 1.09278350515456 10.2411719991708  C 1.02405498281792 10.3102757238615  0.945017182130641 10.344827586207  0.855670103092734 10.344827586207  C 0.766323024055055 10.344827586207  0.68728522336778 10.3102757238615  0.618556701030911 10.2411719991708  L 0.10309278350519 9.72289406399  C 0.0343642611683208 9.65379033929935  0 9.57432105590487  0 9.48448621380692  C 0 9.39465137170896  0.0343642611683208 9.3151820883146  0.10309278350519 9.24607836362384  L 4.15463917525767 5.17241379310349  L 0.10309278350519 1.09874922258314  C 0.0343642611683208 1.02964549789226  0 0.950176214498015  0 0.860341372399944  C 0 0.770506530301987  0.0343642611683208 0.691037246907626  0.10309278350519 0.621933522216864  L 0.618556701030911 0.103655587036201  C 0.68728522336778 0.0345518623453245  0.766323024055055 0  0.855670103092734 0  C 0.945017182130641 0  1.02405498281792 0.0345518623453245  1.09278350515456 0.103655587036201  L 5.89690721649481 4.93400594292029  Z " fill-rule="nonzero" fill="#999999" stroke="none" transform="matrix(1 0 0 1 349 449 )" />
  </g>
</svg>