<?xml version="1.0" encoding="utf-8"?>
<svg version="1.1" xmlns:xlink="http://www.w3.org/1999/xlink" width="35px" height="40px" xmlns="http://www.w3.org/2000/svg">
  <g transform="matrix(1 0 0 1 -329 -150 )">
    <path d="M 17.1436814134788 5.71346144366413  C 21.0324142874467 5.71346144366413  24.8055998847646 7.03561064645564  27.8438095238095 9.46285714285713  L 30.6114285714286 6.6952380952381  L 33.3047619047619 9.38857142857142  L 30.5371428571428 12.1561904761905  C 32.9643893535444 15.1944001152354  34.2865385563359 18.9675857125533  34.2865385563359 22.8563185865213  C 34.2865385563359 32.3240571550492  26.6114199820066 39.9991757293784  17.1436814134788 39.9991757293784  C 7.67594284495084 39.9991757293784  0.000824270621592404 32.3240571550492  0.000824270621592404 22.8563185865213  C 0.000824270621592404 13.3885800179934  7.67594284495084 5.71346144366413  17.1436814134788 5.71346144366413  Z M 19 13.3333333333333  L 15.2380952380952 13.3333333333333  L 15.2380952380952 24.7619047619048  L 19 24.7619047619048  L 19 13.3333333333333  Z M 9.52380952380952 4  L 9.52380952380952 0  L 24.7619047619048 0  L 24.7619047619048 4  L 9.52380952380952 4  Z " fill-rule="nonzero" fill="#ffffff" stroke="none" transform="matrix(1 0 0 1 329 150 )" />
  </g>
</svg>