<?xml version="1.0" encoding="utf-8"?>
<svg version="1.1" xmlns:xlink="http://www.w3.org/1999/xlink" width="45px" height="50px" xmlns="http://www.w3.org/2000/svg">
  <g transform="matrix(1 0 0 1 -194 -197 )">
    <path d="M 45 47.5  C 45 48.880711874577  43.880711874577 50  42.5 50  L 8.75 50  C 3.91750843898058 50  0 46.0824915610193  0 41.25  L 0 7.5  C 0 3.35786437626908  3.35786437626899 0  7.5 0  L 42.5 0  C 43.880711874577 0  45 1.11928812542303  45 2.5  L 45 47.5  Z M 8.75 45  L 40 45  L 40 37  L 8.75 37  C 8.75 37.5  8.75 37.5  8.75 37.5  C 6.67893218813453 37.5  5 39.1789321881346  5 41.25  C 5 43.3210678118654  6.67893218813453 45  8.75 45  Z M 35 5  L 18 5  L 18 25  L 26.25 20  L 35 25  L 35 5  Z " fill-rule="nonzero" fill="#ffffff" stroke="none" transform="matrix(1 0 0 1 194 197 )" />
  </g>
</svg>