<?xml version="1.0" encoding="utf-8"?>
<svg version="1.1" xmlns:xlink="http://www.w3.org/1999/xlink" width="13px" height="14px" xmlns="http://www.w3.org/2000/svg">
  <g transform="matrix(1 0 0 1 -56 -503 )">
    <path d="M 12.6 13.3  C 12.6 13.6865993248815  12.2865993248815 14  11.9 14  L 2.45 14  C 1.09690236291456 14  0 12.9030976370854  0 11.55  L 0 2.10000000000002  C 0 0.940202025355291  0.940202025355319 0  2.1 0  L 11.9 0  C 12.2865993248815 0  12.6 0.313400675118487  12.6 0.699999999999989  L 12.6 13.3  Z M 2.45 12.6  L 11.2 12.6  L 11.2 10.5  L 2.45 10.5  C 1.87010101267767 10.5  1.4 10.9701010126777  1.4 11.55  C 1.4 12.1298989873223  1.87010101267767 12.6  2.45 12.6  Z M 9.8 1.39999999999998  L 4.9 1.39999999999998  L 4.9 7  L 7.34999999999999 5.60000000000002  L 9.8 7  L 9.8 1.39999999999998  Z " fill-rule="nonzero" fill="#ffffff" stroke="none" transform="matrix(1 0 0 1 56 503 )" />
  </g>
</svg>