<?xml version="1.0" encoding="utf-8"?>
<svg version="1.1" xmlns:xlink="http://www.w3.org/1999/xlink" width="14px" height="16px" xmlns="http://www.w3.org/2000/svg">
  <g transform="matrix(1 0 0 1 -370 -332 )">
    <path d="M 5.0014204545455 5.79568614130434  C 5.0610795454545 5.85512907608697  5.09090909090912 5.93108393719808  5.09090909090912 6.02355072463769  L 5.09090909090912 11.7300724637681  C 5.09090909090912 11.8225392512077  5.0610795454545 11.8984941123188  5.0014204545455 11.9579370471014  C 4.94176136363637 12.0173799818841  4.86553030303031 12.0471014492754  4.77272727272725 12.0471014492754  L 4.13636363636363 12.0471014492754  C 4.04356060606062 12.0471014492754  3.9673295454545 12.0173799818841  3.9076704545455 11.9579370471014  C 3.84801136363637 11.8984941123188  3.81818181818181 11.8225392512077  3.81818181818181 11.7300724637681  L 3.81818181818181 6.02355072463769  C 3.81818181818181 5.93108393719808  3.84801136363637 5.85512907608697  3.9076704545455 5.79568614130434  C 3.9673295454545 5.73624320652175  4.04356060606062 5.70652173913047  4.13636363636363 5.70652173913047  L 4.77272727272725 5.70652173913047  C 4.86553030303031 5.70652173913047  4.94176136363637 5.73624320652175  5.0014204545455 5.79568614130434  Z M 7.546875 5.79568614130434  C 7.60653409090912 5.85512907608697  7.63636363636363 5.93108393719808  7.63636363636363 6.02355072463769  L 7.63636363636363 11.7300724637681  C 7.63636363636363 11.8225392512077  7.60653409090912 11.8984941123188  7.546875 11.9579370471014  C 7.48721590909088 12.0173799818841  7.41098484848481 12.0471014492754  7.31818181818181 12.0471014492754  L 6.68181818181819 12.0471014492754  C 6.58901515151518 12.0471014492754  6.51278409090912 12.0173799818841  6.453125 11.9579370471014  C 6.39346590909088 11.8984941123188  6.36363636363637 11.8225392512077  6.36363636363637 11.7300724637681  L 6.36363636363637 6.02355072463769  C 6.36363636363637 5.93108393719808  6.39346590909088 5.85512907608697  6.453125 5.79568614130434  C 6.51278409090912 5.73624320652175  6.58901515151518 5.70652173913047  6.68181818181819 5.70652173913047  L 7.31818181818181 5.70652173913047  C 7.41098484848481 5.70652173913047  7.48721590909088 5.73624320652175  7.546875 5.79568614130434  Z M 10.0923295454545 5.79568614130434  C 10.1519886363636 5.85512907608697  10.1818181818182 5.93108393719808  10.1818181818182 6.02355072463769  L 10.1818181818182 11.7300724637681  C 10.1818181818182 11.8225392512077  10.1519886363636 11.8984941123188  10.0923295454545 11.9579370471014  C 10.0326704545455 12.0173799818841  9.95643939393938 12.0471014492754  9.86363636363637 12.0471014492754  L 9.22727272727275 12.0471014492754  C 9.13446969696969 12.0471014492754  9.05823863636363 12.0173799818841  8.9985795454545 11.9579370471014  C 8.9389204545455 11.8984941123188  8.90909090909088 11.8225392512077  8.90909090909088 11.7300724637681  L 8.90909090909088 6.02355072463769  C 8.90909090909088 5.93108393719808  8.9389204545455 5.85512907608697  8.9985795454545 5.79568614130434  C 9.05823863636363 5.73624320652175  9.13446969696969 5.70652173913047  9.22727272727275 5.70652173913047  L 9.86363636363637 5.70652173913047  C 9.95643939393938 5.70652173913047  10.0326704545455 5.73624320652175  10.0923295454545 5.79568614130434  Z M 11.3849431818182 13.5975713315217  C 11.4313446969697 13.4753830766908  11.4545454545455 13.34163647343  11.4545454545455 13.1963315217391  L 11.4545454545455 3.80434782608697  L 2.5454545454545 3.80434782608697  L 2.5454545454545 13.1963315217391  C 2.5454545454545 13.34163647343  2.56865530303031 13.4753830766908  2.61505681818181 13.5975713315217  C 2.66145833333331 13.7197595863527  2.7095170454545 13.8089239885266  2.7592329545455 13.8650645380435  C 2.80894886363637 13.9212050875604  2.84375 13.9492753623188  2.86363636363637 13.9492753623188  L 11.1363636363636 13.9492753623188  C 11.15625 13.9492753623188  11.1910511363636 13.9212050875604  11.2407670454545 13.8650645380435  C 11.2904829545455 13.8089239885266  11.3385416666667 13.7197595863527  11.3849431818182 13.5975713315217  Z M 5.25994318181819 1.37709465579709  L 4.77272727272725 2.53623188405797  L 9.22727272727275 2.53623188405797  L 8.75 1.37709465579709  C 8.7035984848485 1.3176517210145  8.64725378787875 1.28132548309179  8.58096590909088 1.268115942029  L 5.42897727272725 1.268115942029  C 5.36268939393938 1.28132548309179  5.30634469696969 1.3176517210145  5.25994318181819 1.37709465579709  Z M 13.9105113636364 2.62539628623188  C 13.9701704545455 2.6848392210145  14 2.76079408212561  14 2.85326086956522  L 14 3.48731884057972  C 14 3.57978562801932  13.9701704545455 3.65574048913044  13.9105113636364 3.71518342391303  C 13.8508522727273 3.77462635869566  13.7746212121212 3.80434782608697  13.6818181818182 3.80434782608697  L 12.7272727272727 3.80434782608697  L 12.7272727272727 13.1963315217391  C 12.7272727272727 13.7445274758454  12.5714962121212 14.2184197614734  12.2599431818182 14.6180083786232  C 11.9483901515152 15.0175969957729  11.5738636363636 15.2173913043478  11.1363636363636 15.2173913043478  L 2.86363636363637 15.2173913043478  C 2.42613636363637 15.2173913043478  2.05160984848482 15.0242017663044  1.74005681818181 14.6378226902174  C 1.42850378787875 14.2514436141304  1.27272727272725 13.7841560990338  1.27272727272725 13.2359601449275  L 1.27272727272725 3.80434782608697  L 0.318181818181813 3.80434782608697  C 0.225378787878753 3.80434782608697  0.149147727272748 3.77462635869566  0.089488636363626 3.71518342391303  C 0.0298295454545041 3.65574048913044  0 3.57978562801932  0 3.48731884057972  L 0 2.85326086956522  C 0 2.76079408212561  0.0298295454545041 2.6848392210145  0.089488636363626 2.62539628623188  C 0.149147727272748 2.56595335144928  0.225378787878753 2.53623188405797  0.318181818181813 2.53623188405797  L 3.390625 2.53623188405797  L 4.08664772727275 0.881736865942031  C 4.1860795454545 0.637360356280169  4.36505681818181 0.429310084541072  4.6235795454545 0.257586050724655  C 4.88210227272725 0.0858620169082087  5.14393939393938 0  5.40909090909088 0  L 8.59090909090912 0  C 8.85606060606062 0  9.11789772727275 0.0858620169082087  9.3764204545455 0.257586050724655  C 9.63494318181819 0.429310084541072  9.8139204545455 0.637360356280169  9.91335227272725 0.881736865942031  L 10.609375 2.53623188405797  L 13.6818181818182 2.53623188405797  C 13.7746212121212 2.53623188405797  13.8508522727273 2.56595335144928  13.9105113636364 2.62539628623188  Z " fill-rule="nonzero" fill="#cccccc" stroke="none" transform="matrix(1 0 0 1 370 332 )" />
  </g>
</svg>