<?xml version="1.0" encoding="utf-8"?>
<svg version="1.1" xmlns:xlink="http://www.w3.org/1999/xlink" width="30px" height="30px" xmlns="http://www.w3.org/2000/svg">
  <g transform="matrix(1 0 0 1 -355 -776 )">
    <path d="M 23.37890625 17.12890625  C 23.6263020833334 16.8815104166666  23.75 16.5885416666666  23.75 16.25  L 23.75 13.75  C 23.75 13.4114583333334  23.6263020833334 13.1184895833334  23.37890625 12.87109375  C 23.1315104166666 12.6236979166666  22.8385416666666 12.5  22.5 12.5  L 17.5 12.5  L 17.5 7.5  C 17.5 7.16145833333326  17.3763020833334 6.86848958333326  17.12890625 6.62109375  C 16.8815104166666 6.37369791666674  16.5885416666666 6.25  16.25 6.25  L 13.75 6.25  C 13.4114583333334 6.25  13.1184895833334 6.37369791666674  12.87109375 6.62109375  C 12.6236979166666 6.86848958333326  12.5 7.16145833333326  12.5 7.5  L 12.5 12.5  L 7.5 12.5  C 7.16145833333337 12.5  6.86848958333337 12.6236979166666  6.62109375 12.87109375  C 6.37369791666663 13.1184895833334  6.25 13.4114583333334  6.25 13.75  L 6.25 16.25  C 6.25 16.5885416666666  6.37369791666663 16.8815104166666  6.62109375 17.12890625  C 6.86848958333337 17.3763020833334  7.16145833333337 17.5  7.5 17.5  L 12.5 17.5  L 12.5 22.5  C 12.5 22.8385416666667  12.6236979166666 23.1315104166667  12.87109375 23.37890625  C 13.1184895833334 23.6263020833333  13.4114583333334 23.75  13.75 23.75  L 16.25 23.75  C 16.5885416666666 23.75  16.8815104166666 23.6263020833333  17.12890625 23.37890625  C 17.3763020833334 23.1315104166667  17.5 22.8385416666667  17.5 22.5  L 17.5 17.5  L 22.5 17.5  C 22.8385416666666 17.5  23.1315104166666 17.3763020833334  23.37890625 17.12890625  Z M 27.98828125 7.470703125  C 29.3294270833334 9.76888020833326  30 12.2786458333334  30 15  C 30 17.7213541666666  29.3294270833334 20.2311197916667  27.98828125 22.529296875  C 26.6471354166666 24.8274739583333  24.8274739583334 26.6471354166667  22.529296875 27.98828125  C 20.2311197916666 29.3294270833334  17.7213541666666 30  15 30  C 12.2786458333334 30  9.76888020833337 29.3294270833334  7.470703125 27.98828125  C 5.17252604166663 26.6471354166667  3.35286458333337 24.8274739583333  2.01171875 22.529296875  C 0.670572916666629 20.2311197916667  0 17.7213541666666  0 15  C 0 12.2786458333334  0.670572916666629 9.76888020833326  2.01171875 7.470703125  C 3.35286458333337 5.17252604166674  5.17252604166663 3.35286458333326  7.470703125 2.01171875  C 9.76888020833337 0.670572916666629  12.2786458333334 0  15 0  C 17.7213541666666 0  20.2311197916666 0.670572916666629  22.529296875 2.01171875  C 24.8274739583334 3.35286458333326  26.6471354166666 5.17252604166674  27.98828125 7.470703125  Z " fill-rule="nonzero" fill="#2f78ff" stroke="none" transform="matrix(1 0 0 1 355 776 )" />
  </g>
</svg>