<?xml version="1.0" encoding="utf-8"?>
<svg version="1.1" xmlns:xlink="http://www.w3.org/1999/xlink" width="32px" height="39px" xmlns="http://www.w3.org/2000/svg">
  <defs>
    <filter x="82px" y="381px" width="32px" height="39px" filterUnits="userSpaceOnUse" id="filter1466">
      <feOffset dx="0" dy="0" in="SourceAlpha" result="shadowOffsetInner" />
      <feGaussianBlur stdDeviation="5" in="shadowOffsetInner" result="shadowGaussian" />
      <feComposite in2="shadowGaussian" operator="atop" in="SourceAlpha" result="shadowComposite" />
      <feColorMatrix type="matrix" values="0 0 0 0 0.184313725490196  0 0 0 0 0.470588235294118  0 0 0 0 1  0 0 0 0.309803921568627 0  " in="shadowComposite" />
    </filter>
    <g id="widget1467">
      <path d="M 6.4579475308642 17.7172067901234  C 6.68762860082302 17.4875257201646  6.80246913580248 17.2114197530864  6.80246913580248 16.8888888888889  C 6.80246913580248 16.5663580246913  6.68762860082302 16.2902520576132  6.4579475308642 16.0605709876543  C 6.22826646090533 15.8308899176955  5.95216049382714 15.7160493827161  5.62962962962962 15.7160493827161  C 5.3070987654321 15.7160493827161  5.03099279835391 15.8308899176955  4.80131172839504 16.0605709876543  C 4.57163065843622 16.2902520576132  4.45679012345676 16.5663580246913  4.45679012345676 16.8888888888889  C 4.45679012345676 17.2114197530864  4.57163065843622 17.4875257201646  4.80131172839504 17.7172067901234  C 5.03099279835391 17.9468878600823  5.3070987654321 18.0617283950617  5.62962962962962 18.0617283950617  C 5.95216049382714 18.0617283950617  6.22826646090533 17.9468878600823  6.4579475308642 17.7172067901234  Z M 9.71257716049382 14.8730709876543  C 9.80542695473247 14.7802211934156  9.85185185185185 14.6702674897119  9.85185185185185 14.5432098765432  L 9.85185185185185 4.22222222222217  C 9.85185185185185 4.09516460905354  9.80542695473247 3.98521090534984  9.71257716049382 3.89236111111109  C 9.61972736625512 3.79951131687244  9.50977366255142 3.75308641975312  9.38271604938268 3.75308641975312  L 1.87654320987656 3.75308641975312  C 1.74948559670781 3.75308641975312  1.63953189300412 3.79951131687244  1.54668209876542 3.89236111111109  C 1.45383230452677 3.98521090534984  1.40740740740739 4.09516460905354  1.40740740740739 4.22222222222217  L 1.40740740740739 14.5432098765432  C 1.40740740740739 14.6702674897119  1.45383230452677 14.7802211934156  1.54668209876542 14.8730709876543  C 1.63953189300412 14.965920781893  1.74948559670781 15.0123456790122  1.87654320987656 15.0123456790122  L 9.38271604938268 15.0123456790122  C 9.50977366255142 15.0123456790122  9.61972736625512 14.965920781893  9.71257716049382 14.8730709876543  Z M 6.80246913580248 2.34567901234573  C 6.9588477366255 2.34567901234573  7.03703703703701 2.2674897119341  7.03703703703701 2.11111111111109  C 7.03703703703701 1.95473251028807  6.9588477366255 1.87654320987656  6.80246913580248 1.87654320987656  L 4.45679012345676 1.87654320987656  C 4.30041152263374 1.87654320987656  4.22222222222223 1.95473251028807  4.22222222222223 2.11111111111109  C 4.22222222222223 2.2674897119341  4.30041152263374 2.34567901234573  4.45679012345676 2.34567901234573  L 6.80246913580248 2.34567901234573  Z M 10.7021604938271 0.557098765432102  C 11.0735596707819 0.928497942386798  11.2592592592592 1.36831275720169  11.2592592592592 1.87654320987656  L 11.2592592592592 16.8888888888889  C 11.2592592592592 17.3971193415638  11.0735596707819 17.8369341563786  10.7021604938271 18.2083333333334  C 10.3307613168724 18.5797325102881  9.8909465020576 18.7654320987654  9.38271604938268 18.7654320987654  L 1.87654320987656 18.7654320987654  C 1.36831275720164 18.7654320987654  0.928497942386855 18.5797325102881  0.557098765432102 18.2083333333334  C 0.185699588477348 17.8369341563786  0 17.3971193415638  0 16.8888888888889  L 0 1.87654320987656  C 0 1.36831275720169  0.185699588477348 0.928497942386798  0.557098765432102 0.557098765432102  C 0.928497942386855 0.185699588477405  1.36831275720164 0  1.87654320987656 0  L 9.38271604938268 0  C 9.8909465020576 0  10.3307613168724 0.185699588477405  10.7021604938271 0.557098765432102  Z " fill-rule="nonzero" fill="#2f78ff" stroke="none" transform="matrix(1 0 0 1 92 391 )" />
    </g>
  </defs>
  <g transform="matrix(1 0 0 1 -82 -381 )">
    <use xlink:href="#widget1467" filter="url(#filter1466)" />
    <use xlink:href="#widget1467" />
  </g>
</svg>