<?xml version="1.0" encoding="utf-8"?>
<svg version="1.1" xmlns:xlink="http://www.w3.org/1999/xlink" width="38px" height="40px" xmlns="http://www.w3.org/2000/svg">
  <defs>
    <filter x="80px" y="330px" width="38px" height="40px" filterUnits="userSpaceOnUse" id="filter1383">
      <feOffset dx="0" dy="0" in="SourceAlpha" result="shadowOffsetInner" />
      <feGaussianBlur stdDeviation="5" in="shadowOffsetInner" result="shadowGaussian" />
      <feComposite in2="shadowGaussian" operator="atop" in="SourceAlpha" result="shadowComposite" />
      <feColorMatrix type="matrix" values="0 0 0 0 0.184313725490196  0 0 0 0 0.470588235294118  0 0 0 0 1  0 0 0 0.2 0  " in="shadowComposite" />
    </filter>
    <g id="widget1384">
      <path d="M 10.2926682692308 5.02232142857156  C 10.8443509615385 5.57550465838506  11.1201923076923 6.24514751552806  11.1201923076923 7.03125  C 11.1201923076923 7.81007375776403  10.8443509615385 8.47607725155285  10.2926682692308 9.02926048136646  C 9.74098557692309 9.58244371118019  9.07932692307691 9.859035326087  8.30769230769232 9.859035326087  C 7.53605769230768 9.859035326087  6.87439903846155 9.58244371118019  6.32271634615387 9.02926048136646  C 5.77103365384613 8.47607725155285  5.49519230769232 7.81007375776403  5.49519230769232 7.03125  C 5.49519230769232 6.24514751552806  5.77103365384613 5.57550465838506  6.32271634615387 5.02232142857156  C 6.87439903846155 4.46913819875783  7.53605769230768 4.19254658385091  8.30769230769232 4.19254658385091  C 9.07932692307691 4.19254658385091  9.74098557692309 4.46913819875783  10.2926682692308 5.02232142857156  Z M 10.2548076923077 9.64613256987582  C 10.4350961538461 9.53331230590061  10.5504807692308 9.46234472049684  10.6009615384615 9.43322981366452  C 10.9326923076923 9.43322981366452  11.2301682692308 9.49509899068323  11.4933894230769 9.61883734472042  C 11.7566105769231 9.74257569875783  11.9729567307692 9.9154454580746  12.1424278846154 10.1374466226707  C 12.3118990384615 10.3594477872671  12.4543269230769 10.6032851319876  12.5697115384615 10.8689586568323  C 12.6850961538461 11.134632181677  12.7716346153846 11.4294206133541  12.8293269230769 11.7533239518633  C 12.8870192307692 12.0772272903727  12.9284855769231 12.3774747670808  12.9537259615385 12.6540663819876  C 12.9789663461539 12.9306579968945  12.9915865384615 13.2181677018634  12.9915865384615 13.5165954968944  C 12.9915865384615 14.0042701863355  12.8491586538462 14.4355347437888  12.5643028846154 14.8103891692547  C 12.2794471153846 15.1852435947205  11.8990384615385 15.3726708074535  11.4230769230769 15.3726708074535  L 5.19230769230768 15.3726708074535  C 4.71634615384613 15.3726708074535  4.3359375 15.1852435947205  4.05108173076923 14.8103891692547  C 3.76622596153845 14.4355347437888  3.62379807692309 14.0042701863355  3.62379807692309 13.5165954968944  C 3.62379807692309 13.1672166149068  3.64002403846155 12.8269361413044  3.67247596153845 12.495754076087  C 3.70492788461536 12.1645720108696  3.77163461538464 11.806094720497  3.87259615384613 11.4203222049689  C 3.97355769230768 11.034549689441  4.10516826923077 10.7015479425465  4.26742788461536 10.4213169642858  C 4.4296875 10.1410859860248  4.65685096153845 9.90634704968943  4.94891826923077 9.71710015527958  C 5.24098557692309 9.52785326086962  5.578125 9.43322981366452  5.96033653846155 9.43322981366452  L 6.01442307692309 9.43322981366452  C 6.06490384615381 9.46234472049684  6.18028846153845 9.53331230590061  6.36057692307691 9.64613256987582  C 6.54086538461542 9.75895283385103  6.66887019230768 9.83537946428567  6.74459134615387 9.87541246118019  C 6.8203125 9.9154454580746  6.93930288461536 9.97731463509308  7.1015625 10.0610199922361  C 7.26382211538464 10.1447253493789  7.39723557692309 10.2029551630435  7.50180288461536 10.2357094332299  C 7.60637019230768 10.2684637034162  7.73257211538458 10.3012179736025  7.88040865384613 10.3339722437888  C 8.02824519230768 10.3667265139752  8.17067307692309 10.3831036490683  8.30769230769232 10.3831036490683  C 8.44471153846155 10.3831036490683  8.58713942307691 10.3667265139752  8.73497596153845 10.3339722437888  C 8.8828125 10.3012179736025  9.00901442307691 10.2684637034162  9.11358173076923 10.2357094332299  C 9.21814903846155 10.2029551630435  9.3515625 10.1447253493789  9.51382211538464 10.0610199922361  C 9.67608173076923 9.97731463509308  9.79507211538464 9.9154454580746  9.87079326923077 9.87541246118019  C 9.94651442307691 9.83537946428567  10.0745192307692 9.75895283385103  10.2548076923077 9.64613256987582  Z M 18 4.54192546583852  L 18 6.63819875776392  C 18 6.73282220496901  17.9657451923077 6.81470788043475  17.8972355769231 6.88385578416148  C 17.8287259615385 6.95300368788833  17.7475961538461 6.98757763975152  17.6538461538461 6.98757763975152  L 16.6153846153846 6.98757763975152  L 16.6153846153846 8.38509316770183  L 17.6538461538461 8.38509316770183  C 17.7475961538461 8.38509316770183  17.8287259615385 8.41966711956525  17.8972355769231 8.48881502329198  C 17.9657451923077 8.55796292701859  18 8.63984860248445  18 8.73447204968943  L 18 10.8307453416149  C 18 10.9253687888199  17.9657451923077 11.0072544642858  17.8972355769231 11.0764023680124  C 17.8287259615385 11.1455502717391  17.7475961538461 11.1801242236025  17.6538461538461 11.1801242236025  L 16.6153846153846 11.1801242236025  L 16.6153846153846 12.5776397515529  L 17.6538461538461 12.5776397515529  C 17.7475961538461 12.5776397515529  17.8287259615385 12.6122137034162  17.8972355769231 12.6813616071429  C 17.9657451923077 12.7505095108696  18 12.8323951863354  18 12.9270186335405  L 18 15.0232919254659  C 18 15.1179153726708  17.9657451923077 15.1998010481367  17.8972355769231 15.2689489518633  C 17.8287259615385 15.33809685559  17.7475961538461 15.3726708074535  17.6538461538461 15.3726708074535  L 16.6153846153846 15.3726708074535  L 16.6153846153846 17.8183229813665  C 16.6153846153846 18.2987189440994  16.4459134615385 18.7099670031057  16.1069711538461 19.0520671583852  C 15.7680288461538 19.3941673136646  15.3605769230769 19.5652173913044  14.8846153846154 19.5652173913044  L 1.73076923076923 19.5652173913044  C 1.25480769230768 19.5652173913044  0.847355769230774 19.3941673136646  0.508413461538453 19.0520671583852  C 0.169471153846132 18.7099670031057  0 18.2987189440994  0 17.8183229813665  L 0 1.74689440993791  C 0 1.26649844720498  0.169471153846132 0.855250388198783  0.508413461538453 0.513150232919202  C 0.847355769230774 0.171050077639734  1.25480769230768 0  1.73076923076923 0  L 14.8846153846154 0  C 15.3605769230769 0  15.7680288461538 0.171050077639734  16.1069711538461 0.513150232919202  C 16.4459134615385 0.855250388198783  16.6153846153846 1.26649844720498  16.6153846153846 1.74689440993791  L 16.6153846153846 4.19254658385091  L 17.6538461538461 4.19254658385091  C 17.7475961538461 4.19254658385091  17.8287259615385 4.22712053571433  17.8972355769231 4.29626843944106  C 17.9657451923077 4.36541634316768  18 4.44730201863354  18 4.54192546583852  Z M 15.1280048076923 18.063980007764  C 15.1965144230769 17.9948321040373  15.2307692307692 17.9129464285714  15 17.8183229813665  L 15 1.74689440993791  C 15.2307692307692 1.65227096273293  15.1965144230769 1.57038528726707  15.1280048076923 1.50123738354034  C 15.0594951923077 1.43208947981373  14.9783653846154 1.3975155279503  14.8846153846154 1.3975155279503  L 1.73076923076923 1.3975155279503  C 1.63701923076923 1.3975155279503  1.55588942307691 1.43208947981373  1.48737980769232 1.50123738354034  C 1.41887019230768 1.57038528726707  1.38461538461536 1.65227096273293  1.38461538461536 1.74689440993791  L 1.38461538461536 17.8183229813665  C 1.38461538461536 17.9129464285714  1.41887019230768 17.9948321040373  1.48737980769232 18.063980007764  C 1.55588942307691 18.1331279114906  1.63701923076923 18.1677018633541  1.73076923076923 18  L 14.8846153846154 18  C 14.9783653846154 18.1677018633541  15.0594951923077 18.1331279114906  15.1280048076923 18.063980007764  Z " fill-rule="nonzero" fill="#2f78ff" stroke="none" transform="matrix(1 0 0 1 90 340 )" />
    </g>
  </defs>
  <g transform="matrix(1 0 0 1 -80 -330 )">
    <use xlink:href="#widget1384" filter="url(#filter1383)" />
    <use xlink:href="#widget1384" />
  </g>
</svg>