<?xml version="1.0" encoding="utf-8"?>
<svg version="1.1" xmlns:xlink="http://www.w3.org/1999/xlink" width="68px" height="60px" xmlns="http://www.w3.org/2000/svg">
  <g transform="matrix(1 0 0 1 -174 -297 )">
    <path d="M 28.7133333333333 0  L 35.38 7  L 64 7  C 65.8409491661026 6.66666666666667  67.3333333333333 8.15905083389736  67.3333333333333 10  L 67.3333333333333 56.6666666666667  C 67.3333333333333 58.5076158327693  65.8409491661026 60  64 60  L 4 60  C 2.15905083389736 60  0.666666666666667 58.5076158327693  0.666666666666667 56.6666666666667  L 0.666666666666667 3.33333333333333  C 0.666666666666667 1.49238416723069  2.15905083389736 0  4 0  L 28.7133333333333 0  Z M 25.9533333333333 7  L 8 7  L 8 53  L 60 53  L 60 14  L 32.62 14  L 25.9533333333333 7  Z M 20.6666666666667 36  L 20.6666666666667 30  L 47.3333333333333 30  L 47.3333333333333 36  L 20.6666666666667 36  Z " fill-rule="nonzero" fill="#cccccc" stroke="none" transform="matrix(1 0 0 1 174 297 )" />
  </g>
</svg>