<?xml version="1.0" encoding="utf-8"?>
<svg version="1.1" xmlns:xlink="http://www.w3.org/1999/xlink" width="111px" height="111px" xmlns="http://www.w3.org/2000/svg">
  <defs>
    <linearGradient gradientUnits="userSpaceOnUse" x1="231.13416932603" y1="87.396593909506" x2="333" y2="111.75" id="LinearGradient675">
      <stop id="Stop676" stop-color="#7f7f7f" offset="0" />
      <stop id="Stop677" stop-color="#66ccff" offset="0" />
      <stop id="Stop678" stop-color="#6666ff" offset="1" />
    </linearGradient>
    <filter x="232px" y="36px" width="111px" height="111px" filterUnits="userSpaceOnUse" id="filter679">
      <feOffset dx="5" dy="5" in="SourceAlpha" result="shadowOffsetInner" />
      <feGaussianBlur stdDeviation="2.5" in="shadowOffsetInner" result="shadowGaussian" />
      <feComposite in2="shadowGaussian" operator="atop" in="SourceAlpha" result="shadowComposite" />
      <feColorMatrix type="matrix" values="0 0 0 0 0  0 0 0 0 0  0 0 0 0 0  0 0 0 0.349019607843137 0  " in="shadowComposite" />
    </filter>
    <g id="widget680">
      <path d="M 282.5 36  C 310.78 36  333 58.22  333 86.5  C 333 114.78  310.78 137  282.5 137  C 254.22 137  232 114.78  232 86.5  C 232 58.22  254.22 36  282.5 36  Z " fill-rule="nonzero" fill="url(#LinearGradient675)" stroke="none" />
      <path d="M 282.5 36.5  C 310.5 36.5  332.5 58.5  332.5 86.5  C 332.5 114.5  310.5 136.5  282.5 136.5  C 254.5 136.5  232.5 114.5  232.5 86.5  C 232.5 58.5  254.5 36.5  282.5 36.5  Z " stroke-width="1" stroke="#ffffff" fill="none" />
    </g>
  </defs>
  <g transform="matrix(1 0 0 1 -232 -36 )">
    <use xlink:href="#widget680" filter="url(#filter679)" />
    <use xlink:href="#widget680" />
  </g>
</svg>