<?xml version="1.0" encoding="utf-8"?>
<svg version="1.1" xmlns:xlink="http://www.w3.org/1999/xlink" width="24px" height="23px" xmlns="http://www.w3.org/2000/svg">
  <g>
    <path d="M 17.2991071428571 20.0630119722747  L 16.2688873626374 13.9994598973805  L 20.6473214285714 9.72184715095869  L 14.6090888278388 8.82887748672249  L 11.9047619047619 3.32703213610586  L 9.20043498168502 8.82887748672249  L 3.16220238095241 9.72184715095869  L 7.54063644688642 13.9994598973805  L 6.496108058608 20.0630119722747  L 11.9047619047619 17.1968674048069  L 17.2991071428571 20.0630119722747  Z M 23.0082417582418 8.19515707984516  C 23.5424297924299 8.2815734989648  23.8095238095239 8.50241545893721  23.8095238095239 8.85768295976237  C 23.8095238095239 9.06892309538813  23.6855158730159 9.29936687970712  23.4375 9.54901431271941  L 18.2434752747253 14.6475830407777  L 19.4740155677656 21.8489513007472  C 19.4835546398047 21.9161640711735  19.4883241758242 22.0121823146397  19.4883241758242 22.1370060311459  C 19.4883241758242 22.6170972484772  19.2927731990233 22.8571428571428  18.9016712454213 22.8571428571428  C 18.7204288766789 22.8571428571428  18.5296474358975 22.7995319110631  18.329326923077 22.6843100189036  L 11.9047619047619 19.2852642001981  L 5.48019688644695 22.6843100189036  C 5.27033730158735 22.7995319110631  5.07955586080584 22.8571428571428  4.90785256410254 22.8571428571428  C 4.7075320512821 22.8571428571428  4.55729166666663 22.7875296306298  4.45713141025647 22.6483031776037  C 4.35697115384619 22.5090767245777  4.30689102564099 22.338644342425  4.30689102564099 22.1370060311459  C 4.30689102564099 22.0793950850662  4.31643009768015 21.9833768415999  4.33550824175825 21.8489513007472  L 5.5660485347986 14.6475830407777  L 0.357715201465226 9.54901431271941  C 0.119238400488371 9.28976505536053  0 9.05932127104148  0 8.85768295976237  C 0 8.50241545893721  0.267094017093996 8.2815734989648  0.801282051282101 8.19515707984516  L 7.9842032967033 7.14375731388964  L 11.2036401098901 0.59051219731748  C 11.3848824786326 0.196837399105846  11.6185897435897 0  11.9047619047619 0  C 12.1909340659341 0  12.4246413308913 0.196837399105846  12.6058836996338 0.59051219731748  L 15.8253205128206 7.14375731388964  L 23.0082417582418 8.19515707984516  Z " fill-rule="nonzero" fill="#ff9966" stroke="none" />
  </g>
</svg>