<?xml version="1.0" encoding="utf-8"?>
<svg version="1.1" xmlns:xlink="http://www.w3.org/1999/xlink" width="24px" height="24px" xmlns="http://www.w3.org/2000/svg">
  <g>
    <path d="M 23.1923076923077 8.26071833648393  C 23.7307692307692 8.3478260869565  24 8.57043478260869  24 8.92854442344048  C 24 9.14147448015126  23.875 9.3737618147448  23.625 9.62540642722121  L 18.3894230769231 14.764763705104  L 19.6298076923077 22.0237429111531  C 19.6394230769231 22.0914933837429  19.6442307692308 22.1882797731569  19.6442307692308 22.3141020793951  C 19.6442307692308 22.5173534971645  19.59375 22.6891493383743  19.4927884615385 22.8294896030246  C 19.3918269230769 22.9698298676749  19.2451923076923 23.04  19.0528846153846 23.04  C 18.8701923076923 23.04  18.6778846153846 22.9819281663516  18.4759615384615 22.8657844990548  L 12 19.4395463137996  L 5.52403846153847 22.8657844990548  C 5.3125 22.9819281663516  5.12019230769231 23.04  4.94711538461539 23.04  C 4.74519230769231 23.04  4.59375 22.9698298676749  4.49278846153847 22.8294896030246  C 4.39182692307692 22.6891493383743  4.34134615384616 22.5173534971645  4.34134615384616 22.3141020793951  C 4.34134615384616 22.2560302457467  4.35096153846153 22.1592438563328  4.37019230769231 22.0237429111531  L 5.61057692307692 14.764763705104  L 0.36057692307692 9.62540642722121  C 0.120192307692307 9.36408317580339  0 9.13179584120985  0 8.92854442344048  C 0 8.57043478260869  0.269230769230774 8.3478260869565  0.807692307692307 8.26071833648393  L 8.04807692307692 7.20090737240076  L 11.2932692307692 0.59523629489604  C 11.4759615384615 0.198412098298661  11.7115384615385 0  12 0  C 12.2884615384615 0  12.5240384615385 0.198412098298661  12.7067307692308 0.59523629489604  L 15.9519230769231 7.20090737240076  L 23.1923076923077 8.26071833648393  Z " fill-rule="nonzero" fill="#ff9966" stroke="none" />
  </g>
</svg>