<?xml version="1.0" encoding="utf-8"?>
<svg version="1.1" xmlns:xlink="http://www.w3.org/1999/xlink" width="13px" height="13px" xmlns="http://www.w3.org/2000/svg">
  <g transform="matrix(1 0 0 1 -87 -236 )">
    <path d="M 8.24832589285711 7.64370510396975  L 8.60379464285711 7.27410207939511  L 10.4681919642857 5.30812854442343  L 7.88560267857145 4.89920604914937  L 7.40680803571434 4.82056710775049  L 7.18917410714289 4.34873345935728  L 6.03571428571428 1.81655954631378  L 6.03571428571428 9.38948960302457  L 6.46372767857144 9.63327032136107  L 8.77064732142861 10.954404536862  L 8.33537946428572 8.16272211720229  L 8.24832589285711 7.64370510396975  Z M 12.0569196428572 4.74586011342154  C 12.1004464285714 4.89003150598614  12.0424107142857 5.04599873976053  11.8828125 5.21376181474483  L 9.24944196428572 7.99758034026468  L 9.87332589285722 11.929527410208  C 9.89750744047626 12.1025330812855  9.88299851190482 12.2375299306868  9.82979910714289 12.3345179584121  C 9.77659970238096 12.4315059861374  9.69438244047626 12.48  9.58314732142861 12.48  C 9.5009300595238 12.48  9.40420386904765 12.4485444234405  9.29296875 12.3856332703214  L 6.03571428571428 10.5297542533082  L 2.77845982142861 12.3856332703214  C 2.66722470238096 12.4485444234405  2.57049851190482 12.48  2.48828125 12.48  C 2.37704613095241 12.48  2.29482886904765 12.4315059861374  2.24162946428572 12.3345179584121  C 2.1884300595238 12.2375299306868  2.17392113095241 12.1025330812855  2.19810267857144 11.929527410208  L 2.82198660714289 7.99758034026468  L 0.18136160714289 5.21376181474483  C 0.0265997023809632 5.04599873976053  -0.0290178571428896 4.89003150598614  0.014508928571388 4.74586011342154  C 0.0580357142857224 4.60168872085694  0.188616071428612 4.51125393824827  0.40625 4.47455576559548  L 4.04799107142861 3.90049149338375  L 5.68024553571428 0.322419659735374  C 5.77697172619054 0.10747321991181  5.8954613095238 0  6.03571428571428 0  C 6.17113095238096 0  6.28962053571433 0.10747321991181  6.39118303571433 0.322419659735374  L 8.0234375 3.90049149338375  L 11.6651785714286 4.47455576559548  C 11.8828125 4.51125393824827  12.0133928571429 4.60168872085694  12.0569196428572 4.74586011342154  Z " fill-rule="nonzero" fill="#ffcc00" stroke="none" transform="matrix(1 0 0 1 87 236 )" />
  </g>
</svg>