<?xml version="1.0" encoding="utf-8"?>
<svg version="1.1" xmlns:xlink="http://www.w3.org/1999/xlink" width="60px" height="60px" xmlns="http://www.w3.org/2000/svg">
  <defs>
    <filter x="260px" y="159px" width="60px" height="60px" filterUnits="userSpaceOnUse" id="filter620">
      <feOffset dx="0" dy="3" in="SourceAlpha" result="shadowOffsetInner" />
      <feGaussianBlur stdDeviation="5" in="shadowOffsetInner" result="shadowGaussian" />
      <feComposite in2="shadowGaussian" operator="atop" in="SourceAlpha" result="shadowComposite" />
      <feColorMatrix type="matrix" values="0 0 0 0 0.8  0 0 0 0 0.8  0 0 0 0 0.8  0 0 0 0.349019607843137 0  " in="shadowComposite" />
    </filter>
    <g id="widget621">
      <path d="M 290 166  C 301.2 166  310 174.8  310 186  C 310 197.2  301.2 206  290 206  C 278.8 206  270 197.2  270 186  C 270 174.8  278.8 166  290 166  Z " fill-rule="nonzero" fill="#ffffff" stroke="none" />
      <path d="M 290 166.5  C 300.92 166.5  309.5 175.08  309.5 186  C 309.5 196.92  300.92 205.5  290 205.5  C 279.08 205.5  270.5 196.92  270.5 186  C 270.5 175.08  279.08 166.5  290 166.5  Z " stroke-width="1" stroke="#ffffff" fill="none" />
    </g>
  </defs>
  <g transform="matrix(1 0 0 1 -260 -159 )">
    <use xlink:href="#widget621" filter="url(#filter620)" />
    <use xlink:href="#widget621" />
  </g>
</svg>