<?xml version="1.0" encoding="utf-8"?>
<svg version="1.1" xmlns:xlink="http://www.w3.org/1999/xlink" width="13px" height="12px" xmlns="http://www.w3.org/2000/svg">
  <g transform="matrix(1 0 0 1 -20 -236 )">
    <path d="M 12.0793269230768 4.30245746691872  C 12.3597756410256 4.3478260869565  12.4999999999999 4.46376811594206  12.4999999999999 4.65028355387523  C 12.4999999999999 4.76118462507873  12.4348958333333 4.88216761184628  12.3046875 5.01323251417773  L 9.57782451923077 7.6899810964083  L 10.2238581730769 11.4706994328923  C 10.2288661858974 11.5059861373661  10.2313701923076 11.5563957151859  10.2313701923076 11.6219281663516  C 10.2313701923076 11.7277882797732  10.2050781249999 11.8172652804033  10.1524939903846 11.890359168242  C 10.0999098557692 11.9634530560807  10.0235376602564 12  9.92337740384613 12  C 9.82822516025641 12  9.72806490384613 11.9697542533082  9.62289663461536 11.9092627599244  L 6.24999999999994 10.124763705104  L 2.87710336538464 11.9092627599244  C 2.76692708333331 11.9697542533082  2.66676682692309 12  2.57662259615381 12  C 2.47145432692309 12  2.392578125 11.9634530560807  2.33999399038458 11.890359168242  C 2.28740985576923 11.8172652804033  2.26111778846155 11.7277882797732  2.26111778846155 11.6219281663516  C 2.26111778846155 11.5916824196597  2.26612580128204 11.5412728418399  2.27614182692304 11.4706994328923  L 2.92217548076923 7.6899810964083  L 0.187800480769226 5.01323251417773  C 0.0626001602564088 4.87712665406428  0 4.75614366729678  0 4.65028355387523  C 0 4.46376811594206  0.140224358974365 4.3478260869565  0.420673076923094 4.30245746691872  L 4.19170673076923 3.75047258979208  L 5.88191105769226 0.310018903591697  C 5.97706330128199 0.103339634530585  6.09975961538464 0  6.24999999999994 0  C 6.40024038461536 0  6.52293669871796 0.103339634530585  6.61808894230768 0.310018903591697  L 8.30829326923072 3.75047258979208  L 12.0793269230768 4.30245746691872  Z " fill-rule="nonzero" fill="#ffcc00" stroke="none" transform="matrix(1 0 0 1 20 236 )" />
  </g>
</svg>