<?xml version="1.0" encoding="utf-8"?>
<svg version="1.1" xmlns:xlink="http://www.w3.org/1999/xlink" width="21px" height="21px" xmlns="http://www.w3.org/2000/svg">
  <g transform="matrix(1 0 0 1 -61 -142 )">
    <path d="M 21 17.85  C 21 18.4298989873223  20.5298989873223 18.9  19.95 18.9  L 11.55 18.9  L 11.55 3.15  C 11.55 1.41030303803301  12.960303038033 0  14.7 0  L 19.95 0  C 20.5298989873223 0  21 0.470101012677671  21 1.05  L 21 17.85  Z M 9.45 3.15  L 9.45 18.9  L 1.05 18.9  C 0.470101012677671 18.9  0 18.4298989873223  0 17.85  L 0 1.05  C 0 0.470101012677671  0.470101012677671 0  1.05 0  L 6.3 0  C 8.03969696196699 0  9.45 1.41030303803301  9.45 3.15  Z M 9.45 21  L 9.45 18.9  L 11.55 18.9  L 11.55 21  L 9.45 21  Z " fill-rule="nonzero" fill="#ffffff" stroke="none" transform="matrix(1 0 0 1 61 142 )" />
  </g>
</svg>